<?xml version="1.0" encoding="UTF-8"?>
<svg width="1200pt" height="1200pt" version="1.1" viewBox="0 0 1200 1200" xmlns="http://www.w3.org/2000/svg">
 <path d="m630.67 846.63c-31.52-2.8828-62.844-7.6211-93.805-14.18-5.5469-0.85547-12.777 4.043-22.016 18.363v-0.003906c-21.41 33.473-40.84 68.176-58.191 103.92-15.77 32.809-29.016 66.77-39.629 101.59-7.3164 22.961-9.1211 50.859-36.633 56.887-8.082 1.6016-16.473 0.43359-23.809-3.3203-7.3359-3.75-13.191-9.8672-16.621-17.359-15.18-28.277-28.793-57.367-40.777-87.141-12.789-27.398-28.262-53.461-46.188-77.809-36.176-49.285-77.781-94.34-124.04-134.32-14.055-12.141-40.898-27.488-36.188-48.855h-0.003906c2.9961-9.2891 9.2773-17.164 17.672-22.148 8.3945-4.9805 18.316-6.7266 27.906-4.9023 38.441 3.4141 75.598 44.191 101.52 69.875 45.652 45.23 79.23 99.379 115.39 152.03 5.625 7.8477 8.8867 7.1484 13.785-0.71875 19.07-30.602 35.688-64.195 52.633-96.594 8.668-16.574 17.523-33.059 27.113-49.121 5.1562-6.8789 8.1562-15.137 8.6172-23.719 0.45703-8.5859-1.6445-17.117-6.0391-24.504-41.246-88.934-48.824-192.27-4.7461-281.79 56.547-114.83 173.42-171.12 289.04-209.33 9.2852-3.0703 18.586-6.0938 27.879-9.1406h-0.003906c61.57-18.848 121.2-43.543 178.07-73.75 11.844-6.6016 23.414-13.703 34.574-21.402 26.832-18.52 50.254-46 80.141-59.391 9.6953-5.4844 21.484-5.793 31.453-0.82031 9.9688 4.9688 16.82 14.562 18.281 25.605 2.6523 17.176 1.7344 34.715-2.6953 51.52-3.0977 19.5-4.6055 39.219-4.5156 58.961-1.2656 39.809-0.24609 79.668-2.4102 119.45h0.003906c-2.9414 68.547-17.664 136.07-43.523 199.62-50.832 120.67-155.52 208.86-272.43 262.89-38.191 19.125-79.152 32.121-121.38 38.516-9.4375 1.0938-18.945 1.457-28.438 1.0898zm394.05-565.66c0.21484-15.535 0.26172-31.141 0.30859-46.852 0.042968-15.793-14.25-9.2461-24.141-4.7109-55.953 25.656-111.75 51.902-169.75 72.5-60.652 21.547-123.83 37.078-180.96 67.523l-0.003906-0.003906c-26.246 13.996-50.785 30.984-73.125 50.625-25.141 21.383-46.242 47.105-62.297 75.941-29.52 55.273-44.699 146.52-1.2852 199.63 18.938-22.633 105-112.39 147.79-153.8 21.918-21.211 44.23-42.004 66.93-62.383 18.512-19.66 40.977-35.176 65.914-45.531 10.715-3.7891 22.578-2.375 32.102 3.8281 9.5234 6.1992 15.621 16.477 16.492 27.809-0.25 12.352-5.8477 23.988-15.34 31.895-12.734 14.113-25.734 28-39.445 41.168-15.262 14.668-31.375 28.395-47.473 42.121-16.066 13.699-32.137 27.422-47.332 42.09h-0.003906c-15.762 15.668-30.539 32.301-44.246 49.797-23.363 28.906-47.137 57.488-70.352 86.512-5.1211 6.3633-2.7852 10.891 5.2188 12.633 68.398 14.887 141.01-18.168 200.06-49.895v-0.003906c51.754-25.648 98.141-60.941 136.66-103.98 38.594-46.102 66.969-99.863 83.25-157.74 14.867-58.543 21.934-118.79 21.023-179.18z"/>
</svg>
