<?xml version="1.0" encoding="UTF-8"?>
<svg width="720px" height="333px" viewBox="0 0 720 333" version="1.1" xmlns="http://www.w3.org/2000/svg" xmlns:xlink="http://www.w3.org/1999/xlink">
    <title>Pattern</title>
    <defs>
        <linearGradient x1="50%" y1="0%" x2="58.4183158%" y2="95.2312109%" id="linearGradient-1">
            <stop stop-color="#FFFFFF" stop-opacity="0.167777535" offset="0%"></stop>
            <stop stop-color="#A29B9B" offset="34.1400787%"></stop>
            <stop stop-color="#F4E7E7" offset="79.3542395%"></stop>
            <stop stop-color="#FFFFFF" stop-opacity="0.219569493" offset="100%"></stop>
        </linearGradient>
    </defs>
    <g id="Page-1" stroke="none" stroke-width="1" fill="none" fill-rule="evenodd" opacity="0.15187872">
        <g id="Service" transform="translate(-650, -2794)" fill="url(#linearGradient-1)">
            <g id="Testimonial" transform="translate(0, 2392)">
                <path d="M804,402 C906.581091,443.856662 998.59725,529.110988 1057.28273,649.309229 L1057.28273,649.309229 C1171.56743,883.382082 1118.88703,1166.73221 942.207147,1306 L942.207147,1306 C1134.72284,1191.76843 1234.59894,947.326455 1168.77485,722.415459 L1168.77485,722.415459 C1115.92442,541.842402 970.560633,422.732441 804,402 Z M1311.87525,831.690699 C1316.03425,953.054541 1272.65771,1064.83481 1199.38413,1147 L1199.38413,1147 C1307.6237,1070.29954 1375.82576,944.239629 1369.60781,805.678153 L1369.60781,805.678153 C1361.25896,619.648421 1221.48239,471.320637 1041,440 L1041,440 C1193.95789,497.962612 1305.63159,649.385332 1311.87525,831.690699 L1311.87525,831.690699 Z M820.756029,1155 C923.900849,1082.45958 987.363293,965.407829 978.107764,839.653896 C965.643444,670.38325 825.543461,541.082909 650,523 C802.293899,565.4612 917.272098,697.974476 927.704527,863.365241 C934.722145,974.597172 893.038782,1078.6261 820.756029,1155 Z" id="Pattern"></path>
            </g>
        </g>
    </g>
</svg>