<?xml version="1.0" encoding="UTF-8"?>
<svg width="435px" height="129px" viewBox="0 0 435 129" version="1.1" xmlns="http://www.w3.org/2000/svg" xmlns:xlink="http://www.w3.org/1999/xlink">
    <title>Group</title>
    <g id="Page-1" stroke="none" stroke-width="1" fill="none" fill-rule="evenodd">
        <g id="Group" fill="#1C70E6" transform="translate(0.017, -0.019)">
            <path d="M151.88,74.97 L182.88,20.13 L195.17,20.13 L226.61,74.97 L212.31,74.97 L205.73,62.97 L171,62.97 L164.62,74.97 L151.88,74.97 Z M176.41,53.07 L200.41,53.07 L188.59,30.77 L176.41,53.07 Z" id="Shape" fill-rule="nonzero"></path>
            <path d="M231.77,74.97 L231.77,20.13 L278.66,20.13 C283.02,20.13 286.176667,20.97 288.13,22.65 C290.083333,24.33 291.06,27.0366667 291.06,30.77 L291.06,43.01 C291.06,46.71 290.083333,49.4 288.13,51.08 C286.176667,52.76 283.02,53.5966667 278.66,53.59 L244.32,53.59 L244.32,74.97 L231.77,74.97 Z M273,29.62 L244.32,29.62 L244.32,44.15 L273,44.15 C275.21,44.15 276.73,43.83 277.54,43.15 C278.450911,42.2665318 278.901402,41.0110629 278.76,39.75 L278.76,33.92 C278.891604,32.6749575 278.441433,31.4388322 277.54,30.57 C276.74,29.92 275.22,29.62 273,29.62 Z" id="Shape" fill-rule="nonzero"></path>
            <polygon id="Path" fill-rule="nonzero" points="301.38 74.97 301.38 20.13 357.52 20.13 357.52 29.47 314.15 29.47 314.15 41.71 339.46 41.71 339.46 51.05 314.15 51.05 314.15 64.64 358 64.64 358 74.97"></polygon>
            <polygon id="Path" fill-rule="nonzero" points="362 74.97 388 46.8 361.54 20.13 378.45 20.13 396 38.76 412.65 20.13 427.33 20.13 403.42 45.34 433 74.97 415.67 74.97 395.59 53.7 377.07 74.97"></polygon>
            <path d="M126.71,47.76 C120.880449,64.7022027 107.993686,78.2859561 91.3817411,84.9990156 C74.7697958,91.7120752 56.0636481,90.8953448 40.1,82.76 C38.9742357,99.0869217 44.3684506,115.194047 55.1,127.55 C76.7374478,132.137744 99.1781372,124.825663 113.959216,108.371294 C128.740294,91.9169244 133.613101,68.8234874 126.74,47.8 L126.71,47.76 Z" id="Path" fill-rule="nonzero"></path>
            <path d="M18.84,20.56 C36.4235182,17.1524184 54.620991,21.5293623 68.7317121,32.5601952 C82.8424332,43.591028 91.482485,60.193894 92.42,78.08 C107.121473,70.904638 118.377535,58.1921212 123.72,42.73 C116.868985,21.7038658 99.3181388,5.93193674 77.6821123,1.35841741 C56.0460858,-3.21510193 33.613934,4.10504342 18.84,20.56 L18.84,20.56 Z" id="Path" fill-rule="nonzero"></path>
            <path d="M49.12,126.44 C37.3724311,112.920584 32.0587399,94.9743933 34.5518998,77.2384375 C37.0450597,59.5024816 47.10048,43.716741 62.12,33.96 C48.5551273,24.8106784 31.9135593,21.4190643 15.85,24.53 C1.06195961,40.9740601 -3.82427891,64.0609867 3.03354805,85.086292 C9.891375,106.111597 27.4502759,121.877589 49.09,126.44 L49.12,126.44 Z" id="Path" fill-rule="nonzero"></path>
            <path d="M164.72,96.53 L151.72,96.53 L151.72,110.12 L164.72,110.12 L164.72,105.42 L167.86,106.08 L167.86,108.3 C167.86,110.02 167.56,111.19 166.96,111.81 C166.35,112.42 165.2,112.73 163.5,112.73 L153,112.73 C151.3,112.73 150.14,112.42 149.53,111.8 C148.92,111.18 148.6,110.01 148.6,108.3 L148.6,98.41 C148.6,96.7 148.91,95.53 149.53,94.91 C150.15,94.29 151.3,93.98 153,93.98 L163.5,93.98 C165.2,93.98 166.35,94.29 166.96,94.9 C167.57,95.51 167.86,96.69 167.86,98.41 L167.86,100.19 L164.72,100.77 L164.72,96.53 Z" id="Path" fill-rule="nonzero"></path>
            <polygon id="Path" fill-rule="nonzero" points="174.35 112.73 174.35 93.98 177.49 93.98 177.49 110.12 191.68 110.12 191.68 112.73"></polygon>
            <polygon id="Path" fill-rule="nonzero" points="196.32 112.73 196.32 93.98 214.38 93.98 214.38 96.5 199.46 96.5 199.46 101.71 208.58 101.71 208.58 104.2 199.46 104.2 199.46 110.2 214.53 110.2 214.53 112.77"></polygon>
            <path d="M216.58,112.73 L226.81,93.98 L230.17,93.98 L240.58,112.73 L237.14,112.73 L234.75,108.12 L222.06,108.12 L219.67,112.73 L216.58,112.73 Z M223.37,105.73 L233.47,105.73 L228.41,96.14 L223.37,105.73 Z" id="Shape" fill-rule="nonzero"></path>
            <path d="M244.91,112.73 L244.91,93.98 L246.91,93.98 L260.91,106.52 C261.261985,106.834145 261.595855,107.168015 261.91,107.52 C262.27,107.92 262.64,108.37 263.02,108.85 C262.92,108.25 262.85,107.62 262.8,106.96 C262.75,106.3 262.73,105.4 262.73,104.24 L262.73,93.98 L265.61,93.98 L265.61,112.73 L263.85,112.73 L249.44,99.73 L249.13,99.45 C248.514417,98.9228118 247.981772,98.3058883 247.55,97.62 C247.62,98.19 247.67,98.79 247.71,99.44 C247.75,100.09 247.71,100.84 247.71,101.72 L247.71,112.77 L244.91,112.73 Z" id="Path" fill-rule="nonzero"></path>
            <polygon id="Path" fill-rule="nonzero" points="285.45 112.73 285.45 93.98 303.51 93.98 303.51 96.5 288.59 96.5 288.59 101.71 297.71 101.71 297.71 104.2 288.59 104.2 288.59 110.2 303.65 110.2 303.65 112.77"></polygon>
            <path d="M309.36,112.73 L309.36,93.98 L311.36,93.98 L325.36,106.52 C325.711985,106.834145 326.045855,107.168015 326.36,107.52 C326.72,107.92 327.09,108.37 327.47,108.85 C327.376667,108.25 327.306667,107.62 327.26,106.96 C327.26,106.31 327.19,105.4 327.19,104.24 L327.19,93.98 L330.06,93.98 L330.06,112.73 L328.31,112.73 L313.9,99.73 L313.58,99.45 C312.964417,98.9228118 312.431772,98.3058883 312,97.62 C312.07,98.19 312.13,98.79 312.16,99.44 C312.19,100.09 312.21,100.84 312.21,101.72 L312.21,112.77 L309.36,112.73 Z" id="Path" fill-rule="nonzero"></path>
            <polygon id="Path" fill-rule="nonzero" points="338.06 112.73 338.06 93.98 356.12 93.98 356.12 96.5 341.2 96.5 341.2 101.71 350.32 101.71 350.32 104.2 341.2 104.2 341.2 110.2 356.26 110.2 356.26 112.77"></polygon>
            <path d="M362,112.73 L362,93.98 L377.11,93.98 C378.181028,93.8951143 379.246606,94.2005798 380.11,94.84 C380.797021,95.5947257 381.134589,96.6038001 381.04,97.62 L381.04,101.8 C381.13387,102.810075 380.796024,103.812715 380.11,104.56 C379.246606,105.19942 378.181028,105.504886 377.11,105.42 L374.36,105.42 L382.93,112.73 L378.28,112.73 L370.66,105.42 L365.14,105.42 L365.14,112.73 L362,112.73 Z M375.89,96.41 L365.11,96.41 L365.11,102.99 L375.86,102.99 C376.428537,103.054372 377.000328,102.900703 377.46,102.56 C377.78556,102.135403 377.935882,101.602118 377.88,101.07 L377.88,98.34 C377.936754,97.803144 377.782559,97.2652529 377.45,96.84 C376.993845,96.4999367 376.425376,96.3462 375.86,96.41 L375.89,96.41 Z" id="Shape" fill-rule="nonzero"></path>
            <path d="M405.48,96.53 L390.79,96.53 L390.79,110.12 L405.48,110.12 L405.48,104.62 L397.89,104.62 L397.89,102.23 L408.6,102.23 L408.6,108.3 C408.6,110.01 408.3,111.18 407.68,111.8 C407.06,112.42 405.91,112.73 404.21,112.73 L392.07,112.73 C390.35,112.73 389.19,112.42 388.58,111.79 C387.97,111.16 387.67,110 387.67,108.3 L387.67,98.41 C387.67,96.71 387.97,95.55 388.58,94.92 C389.19,94.29 390.35,93.98 392.07,93.98 L404.21,93.98 C405.88,93.98 407.04,94.28 407.66,94.89 C408.394529,95.8277518 408.732022,97.0161581 408.6,98.2 L408.6,98.66 L405.48,99.28 L405.48,96.53 Z" id="Path" fill-rule="nonzero"></path>
            <polygon id="Path" fill-rule="nonzero" points="421.67 112.73 421.67 104.55 412.17 93.98 416.05 93.98 423.38 102.33 430.38 93.98 434.2 93.98 424.78 104.48 424.78 112.73"></polygon>
        </g>
    </g>
</svg>