<svg id="Logo" xmlns="http://www.w3.org/2000/svg" viewBox="0 0 528.2 100"><defs><style>.cls-1{fill:#f7a51c;}.cls-2{fill:#94bc00;}.cls-3{fill:#444545;}</style></defs><path class="cls-1" d="M386.13,323.91a118.81,118.81,0,0,1,33.14-25.37,50,50,0,0,0-66.4,3.94h20.2l12.27,17c-1.16,1.16-2.31,2.31-3.4,3.51-2.76,3-5.3,6.16-7.72,9.39l-21.46-29.84A50,50,0,0,0,358.54,378,113.77,113.77,0,0,1,386.13,323.91Z" transform="translate(-338.29 -287.77)"/><path class="cls-2" d="M393.62,331,423.78,373a50,50,0,0,0,2-68.29A147.26,147.26,0,0,0,393.62,331Z" transform="translate(-338.29 -287.77)"/><path class="cls-2" d="M403.46,373.06s-14.64-20.33-20.53-28.52a136.34,136.34,0,0,0-18.27,37.3,50,50,0,0,0,59-8.78Z" transform="translate(-338.29 -287.77)"/><path class="cls-3" d="M860.56,356.19h-1.44v4.58h-1v-4.58h-1.44v-1h3.92Z" transform="translate(-338.29 -287.77)"/><path class="cls-3" d="M866.49,355.17v5.6h-1v-3.25l-1.33,3.25h-.87l-1.33-3.25v3.25h-1v-5.6h1l1.77,4.06,1.76-4.06Z" transform="translate(-338.29 -287.77)"/><path class="cls-3" d="M547.19,315.9c11.91,0,22,8.91,22.41,22.14a10.7,10.7,0,0,1-.09,2.38H530.7A16.12,16.12,0,0,0,547.19,356a17.55,17.55,0,0,0,13.67-6.35h6.88a23.65,23.65,0,0,1-20.46,11.74,22.4,22.4,0,0,1-22.49-22.67C524.79,326.22,534.49,315.9,547.19,315.9Zm16.41,19.76c-1.41-8.11-7.85-14.38-16.32-14.38a16.83,16.83,0,0,0-16.58,14.38Z" transform="translate(-338.29 -287.77)"/><path class="cls-3" d="M602.07,360.64l-13.76-18.26-13.85,18.26h-6.62L585,337.79l-15.87-21.25h6.44l12.61,16.67,12.7-16.67h6.44l-15.79,21.25,17,22.85Z" transform="translate(-338.29 -287.77)"/><path class="cls-3" d="M623,322v17.73c0,9.79,4.24,14.73,11.12,15.79V361c-9.88-1-16.76-7.58-16.76-21.08V322h-6.62v-5.38h6.62V302.67H623v13.94h11.12V322Z" transform="translate(-338.29 -287.77)"/><path class="cls-3" d="M640.77,337.78c0-14.73,7.49-21.44,18.08-21.44a6.52,6.52,0,0,1,1.32.09v5.38a6.52,6.52,0,0,0-1.32-.09c-7.41,0-12.44,5.12-12.44,16.06v22.93h-5.64Z" transform="translate(-338.29 -287.77)"/><path class="cls-3" d="M661.49,338.66a22.72,22.72,0,1,1,45.43,0v22h-5.65v-9.44a19.17,19.17,0,0,1-17,10.15A22.77,22.77,0,0,1,661.49,338.66Zm39.87,0c0-9.7-7.32-17.38-17-17.38a17.38,17.38,0,1,0,17,17.38Z" transform="translate(-338.29 -287.77)"/><path class="cls-3" d="M713.38,338.66a22.76,22.76,0,0,1,22.75-22.76,22.15,22.15,0,0,1,20,12.44h-6.09a16.78,16.78,0,0,0-13.85-7.06,17.38,17.38,0,1,0,13.85,27.61h6.26a22.42,22.42,0,0,1-20.2,12.53A22.76,22.76,0,0,1,713.38,338.66Z" transform="translate(-338.29 -287.77)"/><path class="cls-3" d="M762.68,299h5.65v36.78l19.85-19.14h7.32l-17.12,16.67,20.11,27.43h-6.35l-17.73-23.82-6.08,5.83v18h-5.65Z" transform="translate(-338.29 -287.77)"/><path class="cls-3" d="M818.15,315.9c11.91,0,22.05,8.91,22.4,22.14a10.13,10.13,0,0,1-.09,2.38H801.65A16.14,16.14,0,0,0,818.15,356a17.58,17.58,0,0,0,13.67-6.35h6.88a23.68,23.68,0,0,1-20.46,11.74,22.4,22.4,0,0,1-22.49-22.67C795.75,326.22,805.45,315.9,818.15,315.9Zm16.4,19.76c-1.41-8.11-7.85-14.38-16.31-14.38a16.84,16.84,0,0,0-16.59,14.38Z" transform="translate(-338.29 -287.77)"/><path class="cls-3" d="M847,337.78c0-14.73,7.49-21.44,18.08-21.44a6.52,6.52,0,0,1,1.32.09v5.38a6.52,6.52,0,0,0-1.32-.09c-7.41,0-12.44,5.12-12.44,16.06v22.93H847Z" transform="translate(-338.29 -287.77)"/><path class="cls-3" d="M498.77,315.9c-5.55,0-10.33,1.65-13.76,5.08v-5.06h-5.65v44.79H485v-23.2c0-11,5.56-16.23,13.76-16.23s13.76,5.21,13.76,16.23v23.2h5.64v-23.2C518.17,322.69,510.06,315.9,498.77,315.9Z" transform="translate(-338.29 -287.77)"/></svg>