<svg xmlns="http://www.w3.org/2000/svg" fill="none" viewBox="0 0 124 64" width="124" height="64" class="w-20 lg:w-32">
              <g clip-path="url(#logo-a)">
                <path fill="#3BAFE4" d="M117.03 2.383h-12.147v11.93h12.147V2.384Z"></path>
                <path class="color-change" fill="#231F20" d="M6.634 33.09H.461V9.337h9.829c2.667 0 4.709.693 6.127 2.079 1.417 1.386 2.126 3.339 2.126 5.86 0 2.52-.709 4.472-2.126 5.858-1.418 1.386-3.46 2.079-6.127 2.079H6.636v7.874l-.002.001Zm0-12.852h2.048c2.269 0 3.402-.988 3.402-2.962 0-1.974-1.133-2.96-3.402-2.96H6.634v5.922ZM27.994 9.338V27.86h7.403v5.23H21.82V9.337h6.174ZM44.305 9.338v12.914c0 .693.026 1.402.079 2.127.053.725.21 1.381.472 1.97a3.265 3.265 0 0 0 1.245 1.432c.567.368 1.365.551 2.394.551 1.029 0 1.821-.183 2.378-.551a3.418 3.418 0 0 0 1.244-1.433 5.604 5.604 0 0 0 .488-1.969c.053-.725.08-1.434.08-2.127V9.338h6.142v13.765c0 3.696-.846 6.395-2.535 8.096-1.692 1.7-4.29 2.551-7.796 2.551-3.507 0-6.11-.85-7.812-2.551-1.7-1.701-2.551-4.399-2.551-8.096V9.338h6.173ZM76.004 15.418c-.672-.547-1.344-.95-2.016-1.214-.672-.262-1.323-.394-1.953-.394-.8 0-1.449.189-1.954.568-.503.377-.755.871-.755 1.48 0 .421.125.767.378 1.04.252.274.582.51.992.71.41.199.87.372 1.385.519.515.147 1.024.305 1.528.472 2.016.672 3.49 1.57 4.426 2.693.934 1.124 1.401 2.588 1.401 4.394 0 1.218-.204 2.32-.614 3.307a6.895 6.895 0 0 1-1.795 2.536c-.788.704-1.754 1.249-2.899 1.638-1.144.389-2.442.583-3.89.583-3.003 0-5.786-.892-8.347-2.678l2.646-4.977c.924.818 1.837 1.427 2.74 1.826.903.399 1.796.598 2.678.598 1.008 0 1.758-.231 2.252-.693.494-.461.74-.987.74-1.575 0-.357-.063-.666-.189-.93-.125-.262-.336-.503-.63-.724-.294-.22-.677-.425-1.15-.614a39.218 39.218 0 0 0-1.716-.63c-.8-.253-1.58-.531-2.347-.835a7.399 7.399 0 0 1-2.048-1.212 5.62 5.62 0 0 1-1.449-1.905c-.368-.767-.551-1.738-.551-2.914 0-1.175.193-2.241.582-3.197a7.1 7.1 0 0 1 1.638-2.457c.703-.682 1.564-1.213 2.583-1.591 1.02-.378 2.158-.568 3.418-.568 1.175 0 2.404.163 3.685.489a16.29 16.29 0 0 1 3.686 1.434l-2.456 4.82Z"></path>
                <path fill="#3BAFE4" d="M6.634 63.69H.461V39.94h9.829c2.667 0 4.709.692 6.127 2.078 1.417 1.386 2.126 3.34 2.126 5.86 0 2.52-.709 4.472-2.126 5.858-1.418 1.386-3.46 2.08-6.127 2.08H6.636v7.874h-.002Zm0-12.85h2.048c2.269 0 3.402-.988 3.402-2.962 0-1.974-1.133-2.961-3.402-2.961H6.634v5.922ZM21.031 51.815c0-1.764.325-3.407.978-4.929a12.301 12.301 0 0 1 2.708-3.985c1.155-1.134 2.536-2.021 4.143-2.662 1.606-.64 3.375-.962 5.309-.962 1.933 0 3.675.32 5.292.962 1.617.64 3.008 1.527 4.173 2.662a12.179 12.179 0 0 1 2.725 3.985c.651 1.522.977 3.165.977 4.93 0 1.763-.326 3.406-.977 4.928a12.172 12.172 0 0 1-2.725 3.984c-1.165 1.134-2.556 2.021-4.173 2.663-1.617.64-3.381.96-5.292.96-1.912 0-3.701-.32-5.309-.96-1.607-.64-2.988-1.528-4.143-2.663a12.282 12.282 0 0 1-2.708-3.984c-.652-1.522-.978-3.165-.978-4.929Zm6.458 0c0 .945.179 1.817.535 2.614.357.8.84 1.492 1.45 2.08a6.52 6.52 0 0 0 2.125 1.369 6.797 6.797 0 0 0 2.567.489 6.797 6.797 0 0 0 4.709-1.859 6.5 6.5 0 0 0 1.465-2.079 6.33 6.33 0 0 0 .535-2.614c0-.944-.178-1.816-.535-2.614a6.52 6.52 0 0 0-1.465-2.079 6.82 6.82 0 0 0-4.709-1.858c-.903 0-1.759.162-2.567.488a6.56 6.56 0 0 0-2.126 1.37 6.613 6.613 0 0 0-1.448 2.079 6.335 6.335 0 0 0-.536 2.614ZM53.981 39.94l4.095 15.34 5.04-15.34h4.915l4.759 15.34 4.375-15.34h6.458l-7.087 23.75h-6.3l-4.662-13.764-4.662 13.765h-6.3l-7.089-23.752h6.458ZM99.631 45.17h-7.339v3.968h6.93v5.23h-6.93v4.095h7.339v5.23H86.117V39.94h13.514v5.23-.002ZM123.539 63.69h-7.686l-5.89-9.134v9.135h-6.174V39.939h9.607c1.324 0 2.478.195 3.465.584.987.389 1.801.918 2.442 1.59a6.703 6.703 0 0 1 1.449 2.331c.324.883.488 1.826.488 2.834 0 1.807-.436 3.272-1.307 4.394-.871 1.124-2.157 1.886-3.86 2.285l7.466 9.733Zm-13.576-13.135h1.165c1.219 0 2.153-.252 2.804-.756.651-.503.977-1.228.977-2.173 0-.946-.326-1.67-.977-2.174-.651-.503-1.585-.756-2.804-.756h-1.165v5.859ZM98.156 0H86.008v14.314h12.148V0Z"></path>
                <path class="color-change" fill="#231F20" d="M117.03 20.977h-12.147v13.189h12.147V20.977ZM98.156 20.977H86.008v10.737h12.148V20.977Z"></path>
              </g>
              <defs>
                <clipPath id="logo-a">
                  <path fill="#fff" d="M.46 0h123.078v64H.46z"></path>
                </clipPath>
              </defs>
            </svg>