<?xml version="1.0" encoding="UTF-8"?>
<svg width="1845px" height="492px" viewBox="0 0 1845 492" version="1.1" xmlns="http://www.w3.org/2000/svg" xmlns:xlink="http://www.w3.org/1999/xlink">
    <title>Group</title>
    <defs>
        <linearGradient x1="49.9998839%" y1="100.91187%" x2="49.9998839%" y2="-4.14886179%" id="linearGradient-1">
            <stop stop-color="#FCAC45" offset="0%"></stop>
            <stop stop-color="#FCD345" offset="100%"></stop>
        </linearGradient>
    </defs>
    <g id="Page-1" stroke="none" stroke-width="1" fill="none" fill-rule="evenodd">
        <g id="pv-case-logo" fill-rule="nonzero">
            <g id="Group">
                <g transform="translate(633.6886, 121)" fill="#231F20">
                    <path d="M0.0113936388,13.6 C0.0113936388,7.5 5.21139364,2.6 11.3113936,2.6 L105.111394,2.6 C126.111394,2.6 144.211394,10.1 159.411394,25.2 C174.611394,40.4 182.011394,58.5 182.011394,79.8 C182.011394,100.8 174.611394,118.9 159.411394,134.1 C144.211394,149.3 126.111394,156.7 105.111394,156.7 L22.0113936,156.7 L22.0113936,236.6 C22.7113936,250.8 -0.588606361,250.8 0.0113936388,236.6 L0.0113936388,13.6 L0.0113936388,13.6 Z M22.0113936,24.6 L22.0113936,134.9 L105.111394,134.9 C120.311394,134.9 132.911394,129.7 143.611394,119.1 C154.311394,108.4 159.411394,95.1 159.411394,80 C159.411394,64.8 154.211394,51.5 143.611394,40.9 C132.911394,30.2 120.311394,24.7 105.111394,24.7 L22.0113936,24.7 L22.0113936,24.6 Z" id="Shape"></path>
                    <path d="M297.311394,208.6 L381.111394,6.5 C383.011394,2.3 386.611394,2.84217094e-14 391.411394,2.84217094e-14 C397.911394,2.84217094e-14 402.411394,4.5 402.411394,10.7 C402.411394,12.3 402.011394,13.9 401.411394,15.2 L307.311394,241.2 C305.711394,245.4 302.111394,247.7 297.311394,247.7 C292.411394,247.7 288.911394,245.4 287.211394,241.2 L193.111394,15.2 C192.411394,13.9 192.111394,12.3 192.111394,10.7 C192.111394,4.5 196.611394,2.84217094e-14 203.111394,2.84217094e-14 C208.011394,2.84217094e-14 211.511394,2.3 213.511394,6.5 L297.311394,208.6 Z" id="Path"></path>
                    <path d="M448.911394,221.5 C429.511394,202.1 419.811394,178.8 419.811394,151.3 C419.811394,123.8 429.511394,100.5 448.911394,81.4 C468.311394,62 491.911394,52.3 519.411394,52.3 C545.611394,52.3 568.611394,61.4 587.711394,79.1 C588.711394,80.1 589.311394,81.7 589.311394,83.3 C589.311394,88.2 583.111394,90.4 580.311394,87.5 C563.111394,71.3 542.811394,63.2 519.511394,63.2 C495.311394,63.2 474.211394,71.9 457.111394,89.1 C439.911394,106.3 431.211394,126.9 431.211394,151.2 C431.211394,175.5 439.911394,196.1 457.111394,213.6 C474.611394,230.7 495.211394,239.5 519.511394,239.5 C542.511394,239.5 562.811394,231.4 580.311394,214.9 C583.211394,212 589.311394,214.3 589.311394,219.1 C589.311394,220.7 588.711394,222.3 587.711394,223.3 C568.311394,241.4 545.711394,250.500765 519.411394,250.500765 C491.911394,250.6 468.711394,240.9 448.911394,221.5" id="Path"></path>
                    <path d="M797.911394,196.9 C789.811394,213.1 777.511394,226 761.711394,236 C745.811394,245.7 728.711394,250.6 709.611394,250.6 C682.111394,250.6 658.811394,240.9 639.411394,221.5 C620.011394,202.1 610.311394,178.8 610.311394,151.3 C610.311394,123.8 620.011394,100.5 639.411394,81.4 C658.811394,62 682.111394,52.3 709.611394,52.3 C728.711394,52.3 745.811394,57.1 761.711394,67.2 C777.511394,76.9 789.811394,89.8 797.911394,106 L797.911394,60.7 C797.911394,53.6 808.911394,53.6 808.911394,60.7 L808.911394,242.1 C808.911394,249.2 797.911394,249.2 797.911394,242.1 L797.911394,196.9 Z M647.211394,213.8 C664.311394,230.9 685.411394,239.7 709.611394,239.7 C733.911394,239.7 754.911394,231 772.011394,213.8 C789.211394,196.7 797.911394,175.6 797.911394,151.4 C797.911394,127.2 789.111394,106.5 772.011394,89.3 C754.911394,72.2 733.811394,63.4 709.611394,63.4 C685.411394,63.4 664.311394,72.1 647.211394,89.3 C630.111394,106.5 621.611394,127.1 621.611394,151.4 C621.611394,175.6 630.011394,196.6 647.211394,213.8" id="Shape"></path>
                    <path d="M913.711394,239.9 C951.211394,239.9 976.711394,223.4 976.711394,196.6 C976.711394,173.6 958.311394,156.8 931.111394,153.2 L896.211394,149 C866.111394,145.5 847.711394,126.4 847.711394,99.5 C847.711394,69.7 874.611394,52.3 915.011394,52.3 C937.311394,52.3 958.011394,57.1 977.111394,66.5 C983.211394,69.7 978.411394,79.4 971.911394,76.2 C954.111394,67.5 935.011394,63.3 915.011394,63.3 C881.011394,63.3 859.011394,76.9 859.011394,99.8 C859.011394,118.9 874.911394,135 898.211394,138 L933.111394,142.2 C967.111394,146.1 988.111394,166.1 988.111394,197.2 C988.111394,230.5 959.011394,250.6 913.711394,250.6 C889.811394,250.6 866.811394,244.5 844.811394,232.2 C838.611394,229 843.511394,219.2 850.011394,222.5 C871.011394,234.1 892.311394,239.9 913.711394,239.9" id="Path"></path>
                    <path d="M1180.81139,80.5 C1199.91139,98.9 1210.21139,121.6 1211.21139,148.1 C1211.21139,153.3 1207.61139,156.8 1203.41139,156.8 L1024.61139,156.8 C1026.21139,180.1 1035.61139,199.8 1052.11139,215.7 C1068.91139,231.5 1089.01139,239.6 1112.31139,239.6 C1143.01139,239.6 1170.51139,223.4 1186.31139,198.5 C1187.31139,195.9 1189.21139,194.6 1191.81139,194.6 C1194.71139,194.6 1197.31139,197.2 1197.31139,200.1 C1197.31139,201.1 1196.71139,202.4 1195.71139,204 C1177.61139,232.5 1146.91139,250.6 1112.31139,250.6 C1084.81139,250.6 1061.51139,240.9 1042.11139,221.5 C1023.11139,202.1 1013.41139,178.8 1013.41139,151.3 C1013.41139,123.8 1023.11139,100.5 1042.11139,81.4 C1061.51139,62 1084.81139,52.3 1112.31139,52.3 C1138.81139,52.4 1161.71139,61.8 1180.81139,80.5 M1199.91139,145.9 C1198.31139,122.9 1189.21139,103.2 1172.41139,87.3 C1155.61139,71.5 1135.61139,63.4 1112.31139,63.4 C1089.01139,63.4 1069.01139,71.5 1052.11139,87.3 C1035.61139,103.1 1026.21139,122.5 1024.61139,145.9 L1199.91139,145.9 Z" id="Shape"></path>
                </g>
                <path d="M258.4,492 C207,492 147.6,455.3 147.6,455.3 L258.4,398 L369.4,455.4 C369.4,455.4 309.8,492 258.4,492 Z M0.8,190.1 C0.5,243.4 0.3,296.7 0,350 C43.6,327.7 87.3,305.7 130.9,283.4 C123.8,266.7 119.6,248 119.6,228.7 C119.6,160.7 168.5,104.2 233,92.2 L233,0 L65.2,85.5 C25.9,105.6 1,145.9 0.8,190.1 Z M116.1,437.1 L224,380.2 L118.8,325.8 L15,380.6 L116.1,437.1 Z M451.7,85.5 L283.9,0 L283.9,92.2 C348.4,104.1 397.3,160.7 397.3,228.7 C397.3,248 393.1,266.7 386,283.4 C429.6,305.7 473.3,327.7 516.9,350 C516.6,296.7 516.4,243.4 516.1,190.1 C515.9,145.9 491,105.6 451.7,85.5 Z M501.3,380.6 L397.5,325.7 L292.3,380.1 L400.2,437 L501.3,380.6 Z" id="Shape" fill="url(#linearGradient-1)"></path>
            </g>
        </g>
    </g>
</svg>