<svg xmlns="http://www.w3.org/2000/svg" height="800" width="1200" viewBox="-75 -31.98275 650 191.8965"><path d="M2.54 83.198l4.195 16.81c16.12 5.662 38.68 5.063 50.246-4.495 11.266-9.288 13.513-34.307.24-43.175-16.12-10.726-38.172-6.95-40.718-20.494-1.798-9.738 4.944-15.58 12.974-16.929 9.828-1.618 19.176 1.08 27.176 3.805l5.243-12.195C51.11.622 30.556-4.59 11.71 6.525-2.553 16.083-4.8 41.611 10.63 51.17 28.248 62.105 52.547 55.663 50 76.007 47.723 94.014 13.656 90.57 2.54 83.198zm184.806 5.393c-6.082-4.764-5.513-16.539 4.914-17.558l18.816-.629c3.116 11.356-5.513 30.382-23.73 18.187zm-13.363-42.336c12.584-5.363 36.853-10.577 37.542 9.977-22.322 2.217-44.284-1.618-43.415 25.288.36 10.187 6.202 17.797 13.723 20.764 17.258 4.404 29.303-1.169 30.232-4.075l2.007 4.135h12.135c2.427-12.105 1.528-54.53-3.446-62.8-7.73-12.914-38.801-16.299-48.808-6.622zM88.74 75.768c-9.768-35.565 29.093-47.49 35.715-18.906 8.509 36.913-28.584 44.972-35.715 18.906zm10.277-47.34c-43.115 9.558-33.468 84.882 15.19 75.205 42.787-8.51 32.929-85.872-15.19-75.205zM341.53 19.05l5.483-13.902c-18.786-8.449-38.651-4.524-50.846 3.026-11.505 7.131-17.408 24.928-17.318 44.733.12 20.614 7.19 34.217 18.906 42.636 16.599 11.955 30.202 8.42 49.887 3.925l-.27-15.01c-13.063 3.025-22.442 9.317-36.733.928-8.81-5.153-14.472-14.92-15.041-29.782-1.318-34.546 14.86-43.385 45.932-36.554zm102.53 108.882h13.932L500 27.56l-15.49-.06-21.213 51.415L442.713 27.5l-14.382-.09 26.307 71.55zM379.103 27.5l.06 14.891 11.775-.27.24 41.797c.09 15.88 10.307 25.737 41.378 16.78l-5.992-12.255c-9.498 3.565-20.015 3.985-20.045-7.61l-.15-38.71h20.045l-5.843-14.593-14.412.03-.03-17.528-14.382.06V27.56zm-232.325 74.755l15.37.03-.15-86.23V2.09h-15.28zm125.42-60.763l2.188-13.932c-16.45-1.079-35.265 4.195-38.951 18.307-2.936 11.086-1.17 42.516-1.438 56.42l15.1.03c.96-57.589-6.381-58.128 23.102-60.825zm83.055 60.823l15.28.09.09-74.875-15.46-.03zm-.12-80.179l15.43.06.09-15.1-15.46.21z" fill="#038652" clip-rule="evenodd" fill-rule="evenodd"/></svg>