<?xml version="1.0" encoding="UTF-8"?>
<svg width="1221px" height="360px" viewBox="0 0 1221 360" version="1.1" xmlns="http://www.w3.org/2000/svg" xmlns:xlink="http://www.w3.org/1999/xlink">
    <title>Asset-1</title>
    <g id="Page-1" stroke="none" stroke-width="1" fill="none" fill-rule="evenodd">
        <g id="Asset-1" transform="translate(0.0025, -0.0037)" fill="#2E5594" fill-rule="nonzero">
            <path d="M223.3275,346.873743 C234.4675,342.053743 244.1975,335.963743 254.1075,330.243743 C278.2675,316.303743 304.1775,308.833743 332.1075,308.543743 C362.4675,308.233743 390.5175,316.233743 416.3675,332.023743 C426.0575,337.943743 435.5775,344.133743 445.2675,350.043743 C447.6575,351.503743 448.0275,353.263743 447.2975,356.033743 C441.9875,352.673743 436.7975,349.433743 431.6475,346.113743 C418.2175,337.463743 404.7375,328.913743 389.7775,323.053743 C369.4275,315.093743 348.3075,311.883743 326.5175,312.823743 C299.5775,313.983743 274.8475,322.133743 251.8275,336.033743 C240.9075,342.623743 229.8475,349.053743 217.7475,353.353743 C201.8175,359.013743 185.3175,359.833743 168.6875,358.763743 C150.5775,357.603743 132.7875,354.473743 115.3775,349.233743 C101.6575,345.103743 88.5674996,339.313743 75.2274996,334.193743 C62.4074996,329.263743 49.3974996,325.003743 35.5374996,324.303743 C24.2474996,323.733743 13.3574996,325.363743 3.17749958,330.613743 C2.25749958,331.083743 1.42749958,331.823743 0.307499579,331.743743 C-0.632500421,328.773743 0.637499579,327.303743 3.36749958,326.073743 C18.6074996,319.243743 34.3474996,319.183743 50.3074996,322.403743 C67.9174996,325.953743 84.0674996,333.793743 100.7375,340.083743 C114.8175,345.393743 129.2575,349.353743 144.0975,351.923743 C155.5575,353.903743 167.0975,355.003743 178.6875,355.223743 C189.4575,355.423743 200.1775,354.373743 210.6575,351.553743 C212.5075,351.053743 212.7075,350.023743 212.7075,348.463743 C212.7075,343.723743 212.7975,338.983743 212.8475,334.243743 C213.4875,278.643743 214.1275,223.033743 214.7475,167.433743 C214.9175,151.903743 215.0075,136.373743 215.1475,120.843743 C215.1575,119.283743 215.2975,117.843743 213.4675,116.983743 C211.5375,116.073743 211.2575,117.953743 210.4675,118.653743 C205.3775,123.153743 203.2775,129.643743 199.7775,135.213743 C198.0075,138.033743 196.1375,140.673743 193.7875,143.053743 C173.8475,163.333743 153.9675,183.673743 134.0675,203.993743 C133.3175,204.753743 132.6075,205.553743 131.8175,206.263743 C131.1775,206.843743 130.5175,208.083743 129.5275,207.073743 C128.5075,206.043743 129.8675,205.423743 130.3775,204.773743 C147.7075,183.153743 165.6775,162.073743 183.6375,140.973743 C191.2275,132.053743 198.7575,123.073743 206.3575,114.153743 C207.5475,112.753743 208.3475,111.483743 206.9175,109.813743 C206.3175,109.113743 206.0875,107.973743 206.6575,107.513743 C209.3875,105.313743 207.3875,103.303743 206.5275,101.303743 C205.9275,99.9037427 205.2175,98.4737427 204.2775,97.2837427 C197.1175,88.1737427 194.7275,77.1337427 191.7075,66.3537427 C185.8775,45.5437427 180.0875,24.7237427 174.2575,3.90374274 C173.8775,2.55374274 172.8275,0.523742744 174.1275,0.0837427439 C175.7875,-0.476257256 175.7475,1.91374274 176.1775,3.05374274 C184.0075,23.8337427 191.7175,44.6637427 199.5575,65.4437427 C204.4875,78.4837427 209.6175,91.4537427 214.5975,104.473743 C215.2575,106.193743 216.2075,107.043743 218.0975,107.423743 C221.2375,108.043743 224.3175,108.833743 227.5475,108.493743 C241.1175,107.033743 254.3775,108.923743 267.6675,111.623743 C287.2375,115.603743 306.9175,119.053743 326.5575,122.723743 C327.1375,122.833743 327.7775,122.823743 328.2875,123.063743 C329.2275,123.503743 330.5175,124.003743 330.2375,125.233743 C329.9575,126.453743 328.6675,125.973743 327.7875,125.883743 C305.7975,123.483743 283.8075,121.003743 261.8075,118.663743 C252.3975,117.663743 242.9575,116.923743 233.5275,116.083743 C231.7575,115.923743 229.7775,115.453743 230.0275,118.423743 C230.1475,119.793743 229.0675,119.983743 228.1075,119.843743 C224.3675,119.303743 224.0675,121.323743 224.0575,124.403743 C223.9575,173.013743 223.7375,221.633743 223.5675,270.243743 C223.4775,294.313743 223.4175,318.383743 223.3475,342.453743 C223.3475,343.743743 223.3475,345.043743 223.3475,346.863743 L223.3275,346.873743 Z" id="Path"></path>
            <g id="Group" transform="translate(446.5275, 88.4937)">
                <path d="M49.89,45.02 C49.89,48.82 48.91,52.23 46.96,55.26 C45,58.29 42.14,60.66 38.37,62.37 C34.6,64.08 30.13,64.94 24.97,64.94 C18.77,64.94 13.66,63.77 9.64,61.43 C6.78,59.75 4.46,57.5 2.68,54.68 C0.9,51.87 5.68434189e-14,49.13 5.68434189e-14,46.48 C5.68434189e-14,44.94 0.54,43.62 1.61,42.52 C2.68,41.42 4.04,40.87 5.7,40.87 C7.04,40.87 8.18,41.3 9.1,42.15 C10.03,43.01 10.82,44.28 11.48,45.96 C12.28,47.96 13.14,49.63 14.07,50.97 C15,52.31 16.3,53.42 17.99,54.29 C19.67,55.16 21.89,55.6 24.63,55.6 C28.4,55.6 31.46,54.72 33.82,52.97 C36.18,51.22 37.35,49.02 37.35,46.4 C37.35,44.32 36.71,42.62 35.44,41.32 C34.17,40.02 32.53,39.03 30.51,38.34 C28.49,37.65 25.81,36.93 22.44,36.16 C17.93,35.1 14.15,33.87 11.11,32.46 C8.07,31.05 5.66,29.12 3.87,26.68 C2.09,24.24 1.19,21.21 1.19,17.58 C1.19,13.95 2.13,11.06 4.02,8.37 C5.9,5.69 8.63,3.62 12.2,2.18 C15.77,0.74 19.97,0.02 24.79,0.02 C28.64,0.02 31.98,0.5 34.79,1.45 C37.6,2.41 39.94,3.68 41.79,5.26 C43.65,6.84 45,8.51 45.86,10.25 C46.72,11.99 47.14,13.69 47.14,15.35 C47.14,16.86 46.6,18.23 45.53,19.44 C44.46,20.65 43.12,21.26 41.53,21.26 C40.07,21.26 38.97,20.9 38.21,20.17 C37.45,19.44 36.63,18.25 35.75,16.59 C34.61,14.22 33.24,12.37 31.64,11.04 C30.04,9.71 27.47,9.05 23.93,9.05 C20.65,9.05 18,9.77 15.99,11.21 C13.98,12.65 12.97,14.39 12.97,16.41 C12.97,17.67 13.31,18.75 14,19.66 C14.69,20.57 15.63,21.36 16.83,22.02 C18.03,22.68 19.24,23.19 20.47,23.56 C21.7,23.93 23.72,24.47 26.55,25.19 C30.09,26.02 33.3,26.93 36.16,27.93 C39.03,28.93 41.47,30.14 43.48,31.57 C45.49,33 47.06,34.8 48.19,36.99 C49.32,39.17 49.88,41.85 49.88,45.02 L49.89,45.02 Z" id="Path"></path>
                <path d="M68.38,23.95 L68.38,25.36 C70.58,22.65 72.86,20.66 75.23,19.39 C77.6,18.12 80.28,17.48 83.28,17.48 C86.88,17.48 90.19,18.41 93.22,20.26 C96.25,22.12 98.64,24.83 100.39,28.4 C102.15,31.97 103.02,36.19 103.02,41.08 C103.02,44.68 102.51,47.98 101.5,50.99 C100.49,54 99.09,56.53 97.32,58.57 C95.55,60.61 93.46,62.18 91.05,63.28 C88.64,64.38 86.05,64.93 83.28,64.93 C79.94,64.93 77.13,64.26 74.86,62.92 C72.59,61.58 70.43,59.61 68.37,57.01 L68.37,74.57 C68.37,79.71 66.5,82.28 62.76,82.28 C60.56,82.28 59.1,81.62 58.39,80.29 C57.68,78.96 57.32,77.03 57.32,74.49 L57.32,24.04 C57.32,21.81 57.81,20.15 58.78,19.05 C59.75,17.95 61.08,17.4 62.76,17.4 C64.44,17.4 65.76,17.96 66.81,19.09 C67.85,20.22 68.37,21.84 68.37,23.95 L68.38,23.95 Z M91.29,40.95 C91.29,37.87 90.82,35.22 89.88,33.01 C88.94,30.8 87.63,29.1 85.96,27.91 C84.29,26.73 82.44,26.13 80.41,26.13 C77.18,26.13 74.46,27.4 72.25,29.94 C70.04,32.48 68.93,36.22 68.93,41.16 C68.93,45.81 70.03,49.43 72.23,52.02 C74.43,54.6 77.16,55.9 80.41,55.9 C82.35,55.9 84.15,55.34 85.81,54.21 C87.47,53.08 88.79,51.39 89.79,49.13 C90.79,46.87 91.29,44.15 91.29,40.95 L91.29,40.95 Z" id="Shape"></path>
                <path d="M142.76,44.03 L119.89,44.03 C119.92,46.69 120.45,49.03 121.5,51.05 C122.54,53.08 123.93,54.6 125.65,55.63 C127.38,56.66 129.28,57.17 131.37,57.17 C132.77,57.17 134.05,57.01 135.2,56.68 C136.36,56.35 137.48,55.84 138.56,55.14 C139.64,54.44 140.64,53.69 141.56,52.89 C142.47,52.09 143.66,51.01 145.11,49.64 C145.71,49.13 146.57,48.87 147.68,48.87 C148.88,48.87 149.85,49.2 150.59,49.86 C151.33,50.52 151.7,51.44 151.7,52.64 C151.7,53.7 151.29,54.93 150.46,56.34 C149.63,57.75 148.38,59.11 146.71,60.41 C145.04,61.71 142.94,62.79 140.41,63.64 C137.88,64.49 134.98,64.92 131.69,64.92 C124.18,64.92 118.34,62.78 114.17,58.5 C110,54.22 107.92,48.41 107.92,41.07 C107.92,37.62 108.43,34.41 109.46,31.46 C110.49,28.51 111.99,25.97 113.96,23.86 C115.93,21.75 118.36,20.13 121.24,19 C124.12,17.87 127.32,17.31 130.83,17.31 C135.4,17.31 139.32,18.27 142.59,20.2 C145.86,22.13 148.31,24.62 149.93,27.67 C151.56,30.73 152.37,33.84 152.37,37.01 C152.37,39.95 151.53,41.86 149.84,42.73 C148.15,43.6 145.79,44.04 142.73,44.04 L142.76,44.03 Z M119.89,37.39 L141.09,37.39 C140.8,33.39 139.73,30.4 137.86,28.42 C135.99,26.44 133.53,25.44 130.47,25.44 C127.41,25.44 125.17,26.45 123.3,28.46 C121.43,30.47 120.29,33.45 119.9,37.39 L119.89,37.39 Z" id="Shape"></path>
                <path d="M201.89,50.46 C201.89,51.92 201.45,53.47 200.58,55.13 C199.71,56.79 198.38,58.36 196.6,59.86 C194.82,61.36 192.57,62.57 189.85,63.48 C187.14,64.39 184.08,64.85 180.69,64.85 C173.47,64.85 167.83,62.74 163.77,58.53 C159.72,54.32 157.69,48.67 157.69,41.59 C157.69,36.79 158.62,32.55 160.47,28.87 C162.33,25.19 165.01,22.34 168.52,20.33 C172.03,18.32 176.23,17.31 181.11,17.31 C184.14,17.31 186.91,17.75 189.44,18.64 C191.97,19.53 194.11,20.67 195.86,22.07 C197.62,23.47 198.96,24.96 199.89,26.55 C200.82,28.13 201.28,29.61 201.28,30.98 C201.28,32.35 200.76,33.56 199.72,34.53 C198.68,35.5 197.41,35.99 195.93,35.99 C194.96,35.99 194.15,35.74 193.51,35.24 C192.87,34.74 192.15,33.93 191.35,32.82 C189.92,30.65 188.43,29.02 186.87,27.94 C185.31,26.86 183.34,26.31 180.94,26.31 C177.49,26.31 174.7,27.66 172.59,30.36 C170.48,33.06 169.42,36.75 169.42,41.43 C169.42,43.63 169.69,45.65 170.23,47.49 C170.77,49.33 171.56,50.9 172.59,52.2 C173.62,53.5 174.86,54.48 176.32,55.16 C177.78,55.83 179.37,56.17 181.12,56.17 C183.46,56.17 185.47,55.63 187.14,54.54 C188.81,53.46 190.29,51.8 191.57,49.57 C192.28,48.26 193.05,47.23 193.88,46.49 C194.71,45.75 195.72,45.38 196.92,45.38 C198.35,45.38 199.53,45.92 200.47,47.01 C201.41,48.1 201.88,49.25 201.88,50.48 L201.89,50.46 Z" id="Path"></path>
                <path d="M215.71,11.95 C214.08,11.95 212.69,11.45 211.53,10.45 C210.37,9.45 209.8,8.04 209.8,6.21 C209.8,4.55 210.39,3.19 211.58,2.12 C212.76,1.05 214.14,0.51 215.71,0.51 C217.28,0.51 218.56,1 219.74,1.97 C220.91,2.94 221.5,4.35 221.5,6.21 C221.5,8.07 220.93,9.42 219.79,10.43 C218.65,11.44 217.29,11.95 215.72,11.95 L215.71,11.95 Z M221.49,24.03 L221.49,57.82 C221.49,60.16 220.93,61.93 219.82,63.13 C218.71,64.33 217.29,64.93 215.58,64.93 C213.87,64.93 212.48,64.32 211.4,63.09 C210.32,61.86 209.79,60.11 209.79,57.82 L209.79,24.37 C209.79,22.06 210.33,20.32 211.4,19.15 C212.47,17.98 213.86,17.39 215.58,17.39 C217.3,17.39 218.71,17.98 219.82,19.15 C220.93,20.32 221.49,21.95 221.49,24.03 Z" id="Shape"></path>
                <path d="M260.84,58.34 C258.01,60.54 255.28,62.19 252.64,63.29 C250,64.39 247.04,64.94 243.75,64.94 C240.75,64.94 238.12,64.35 235.85,63.16 C233.58,61.98 231.83,60.37 230.6,58.34 C229.37,56.31 228.76,54.11 228.76,51.74 C228.76,48.54 229.77,45.82 231.8,43.56 C233.83,41.3 236.61,39.79 240.15,39.02 C240.89,38.85 242.73,38.46 245.67,37.86 C248.61,37.26 251.13,36.71 253.23,36.21 C255.33,35.71 257.61,35.1 260.06,34.39 C259.92,31.31 259.3,29.04 258.2,27.6 C257.1,26.16 254.82,25.44 251.37,25.44 C248.4,25.44 246.17,25.85 244.67,26.68 C243.17,27.51 241.89,28.75 240.82,30.41 C239.75,32.07 238.99,33.16 238.55,33.69 C238.11,34.22 237.16,34.48 235.7,34.48 C234.39,34.48 233.25,34.06 232.3,33.22 C231.34,32.38 230.86,31.3 230.86,29.99 C230.86,27.93 231.59,25.94 233.04,23.99 C234.5,22.05 236.77,20.45 239.85,19.19 C242.93,17.93 246.77,17.31 251.37,17.31 C256.51,17.31 260.55,17.92 263.49,19.13 C266.43,20.34 268.51,22.26 269.72,24.89 C270.93,27.52 271.54,31 271.54,35.34 C271.54,38.08 271.54,40.41 271.52,42.32 C271.5,44.23 271.48,46.36 271.46,48.7 C271.46,50.9 271.82,53.19 272.55,55.57 C273.28,57.95 273.64,59.49 273.64,60.17 C273.64,61.37 273.08,62.46 271.95,63.45 C270.82,64.44 269.54,64.93 268.12,64.93 C266.92,64.93 265.74,64.37 264.57,63.24 C263.4,62.11 262.16,60.48 260.84,58.34 L260.84,58.34 Z M260.07,41.42 C258.36,42.05 255.87,42.71 252.6,43.41 C249.33,44.11 247.07,44.62 245.81,44.95 C244.55,45.28 243.35,45.92 242.21,46.88 C241.07,47.84 240.5,49.17 240.5,50.88 C240.5,52.59 241.17,54.16 242.51,55.4 C243.85,56.64 245.61,57.26 247.78,57.26 C250.09,57.26 252.23,56.75 254.18,55.74 C256.14,54.73 257.57,53.42 258.48,51.82 C259.54,50.05 260.06,47.14 260.06,43.08 L260.06,41.41 L260.07,41.42 Z" id="Shape"></path>
                <path d="M281.13,57.82 L281.13,7.11 C281.13,4.77 281.65,3 282.69,1.8 C283.73,0.6 285.14,2.84217094e-14 286.91,2.84217094e-14 C288.68,2.84217094e-14 290.11,0.59 291.19,1.78 C292.27,2.96 292.82,4.74 292.82,7.11 L292.82,57.82 C292.82,60.19 292.27,61.97 291.17,63.15 C290.07,64.33 288.65,64.93 286.91,64.93 C285.17,64.93 283.8,64.32 282.73,63.09 C281.66,61.86 281.12,60.11 281.12,57.82 L281.13,57.82 Z" id="Path"></path>
                <path d="M323.6,57.18 L323.6,7.71 C323.6,5.14 324.19,3.21 325.36,1.93 C326.53,0.65 328.04,1.42108547e-14 329.9,1.42108547e-14 C331.76,1.42108547e-14 333.36,0.64 334.55,1.91 C335.73,3.18 336.33,5.12 336.33,7.71 L336.33,57.18 C336.33,59.78 335.74,61.72 334.55,63 C333.36,64.28 331.82,64.93 329.9,64.93 C327.98,64.93 326.57,64.28 325.38,62.98 C324.19,61.68 323.6,59.75 323.6,57.18 L323.6,57.18 Z" id="Path"></path>
                <path d="M358.06,23.86 L358.06,25.27 C360.12,22.56 362.36,20.57 364.81,19.3 C367.25,18.03 370.06,17.39 373.22,17.39 C376.38,17.39 379.06,18.06 381.49,19.4 C383.92,20.74 385.73,22.64 386.93,25.1 C387.7,26.53 388.2,28.07 388.43,29.73 C388.66,31.39 388.77,33.5 388.77,36.07 L388.77,57.83 C388.77,60.17 388.23,61.94 387.16,63.14 C386.09,64.34 384.7,64.94 382.98,64.94 C381.26,64.94 379.83,64.33 378.74,63.1 C377.65,61.87 377.11,60.12 377.11,57.83 L377.11,38.34 C377.11,34.49 376.57,31.54 375.5,29.5 C374.43,27.46 372.29,26.44 369.1,26.44 C367.02,26.44 365.12,27.06 363.4,28.3 C361.68,29.54 360.43,31.25 359.63,33.42 C359.06,35.16 358.77,38.42 358.77,43.18 L358.77,57.83 C358.77,60.2 358.22,61.98 357.12,63.16 C356.02,64.34 354.6,64.94 352.86,64.94 C351.12,64.94 349.79,64.33 348.71,63.1 C347.63,61.87 347.08,60.12 347.08,57.83 L347.08,24.04 C347.08,21.81 347.57,20.15 348.54,19.05 C349.51,17.95 350.84,17.4 352.52,17.4 C353.55,17.4 354.48,17.64 355.3,18.13 C356.13,18.62 356.79,19.34 357.29,20.31 C357.79,21.28 358.04,22.47 358.04,23.86 L358.06,23.86 Z" id="Path"></path>
                <path d="M404.05,11.95 C402.42,11.95 401.03,11.45 399.87,10.45 C398.71,9.45 398.14,8.04 398.14,6.21 C398.14,4.55 398.73,3.19 399.92,2.12 C401.1,1.05 402.48,0.51 404.05,0.51 C405.62,0.51 406.91,1 408.08,1.97 C409.25,2.94 409.84,4.35 409.84,6.21 C409.84,8.07 409.27,9.42 408.13,10.43 C406.99,11.44 405.63,11.95 404.06,11.95 L404.05,11.95 Z M409.83,24.03 L409.83,57.82 C409.83,60.16 409.27,61.93 408.16,63.13 C407.05,64.33 405.63,64.93 403.92,64.93 C402.21,64.93 400.81,64.32 399.74,63.09 C398.67,61.86 398.13,60.11 398.13,57.82 L398.13,24.37 C398.13,22.06 398.66,20.32 399.74,19.15 C400.81,17.98 402.2,17.39 403.92,17.39 C405.64,17.39 407.05,17.98 408.16,19.15 C409.27,20.32 409.83,21.95 409.83,24.03 Z" id="Shape"></path>
                <path d="M420.27,18.42 L421.55,18.42 L421.55,11.4 C421.55,9.52 421.6,8.04 421.7,6.97 C421.8,5.9 422.08,4.98 422.54,4.21 C423,3.41 423.65,2.76 424.51,2.26 C425.37,1.76 426.32,1.51 427.38,1.51 C428.86,1.51 430.21,2.07 431.41,3.18 C432.21,3.92 432.72,4.83 432.93,5.9 C433.15,6.97 433.25,8.49 433.25,10.46 L433.25,18.43 L437.53,18.43 C439.19,18.43 440.45,18.82 441.32,19.61 C442.19,20.4 442.63,21.4 442.63,22.63 C442.63,24.2 442.01,25.3 440.77,25.93 C439.53,26.56 437.75,26.87 435.44,26.87 L433.26,26.87 L433.26,48.37 C433.26,50.2 433.32,51.6 433.45,52.59 C433.58,53.58 433.92,54.37 434.48,54.99 C435.04,55.6 435.94,55.91 437.2,55.91 C437.89,55.91 438.81,55.79 439.98,55.55 C441.15,55.31 442.06,55.19 442.72,55.19 C443.66,55.19 444.51,55.57 445.27,56.32 C446.03,57.08 446.41,58.01 446.41,59.13 C446.41,61.01 445.38,62.46 443.33,63.46 C441.28,64.46 438.32,64.96 434.46,64.96 C430.81,64.96 428.04,64.35 426.15,63.12 C424.26,61.89 423.03,60.19 422.45,58.02 C421.86,55.85 421.57,52.95 421.57,49.33 L421.57,26.89 L420.03,26.89 C418.35,26.89 417.06,26.49 416.18,25.69 C415.29,24.89 414.85,23.88 414.85,22.65 C414.85,21.42 415.31,20.42 416.24,19.63 C417.17,18.84 418.52,18.45 420.29,18.45 L420.27,18.42 Z" id="Path"></path>
                <path d="M454.3,11.95 C452.67,11.95 451.28,11.45 450.12,10.45 C448.96,9.45 448.39,8.04 448.39,6.21 C448.39,4.55 448.98,3.19 450.17,2.12 C451.35,1.05 452.73,0.51 454.3,0.51 C455.87,0.51 457.16,1 458.33,1.97 C459.5,2.94 460.09,4.35 460.09,6.21 C460.09,8.07 459.52,9.42 458.38,10.43 C457.24,11.44 455.88,11.95 454.31,11.95 L454.3,11.95 Z M460.08,24.03 L460.08,57.82 C460.08,60.16 459.52,61.93 458.41,63.13 C457.3,64.33 455.88,64.93 454.17,64.93 C452.46,64.93 451.06,64.32 449.99,63.09 C448.92,61.86 448.38,60.11 448.38,57.82 L448.38,24.37 C448.38,22.06 448.91,20.32 449.99,19.15 C451.06,17.98 452.45,17.39 454.17,17.39 C455.89,17.39 457.3,17.98 458.41,19.15 C459.52,20.32 460.08,21.95 460.08,24.03 Z" id="Shape"></path>
                <path d="M499.43,58.34 C496.6,60.54 493.87,62.19 491.23,63.29 C488.59,64.39 485.63,64.94 482.34,64.94 C479.34,64.94 476.71,64.35 474.44,63.16 C472.17,61.98 470.42,60.37 469.19,58.34 C467.96,56.31 467.35,54.11 467.35,51.74 C467.35,48.54 468.36,45.82 470.39,43.56 C472.42,41.3 475.2,39.79 478.74,39.02 C479.48,38.85 481.32,38.46 484.26,37.86 C487.2,37.26 489.72,36.71 491.82,36.21 C493.92,35.71 496.2,35.1 498.65,34.39 C498.51,31.31 497.89,29.04 496.79,27.6 C495.69,26.16 493.41,25.44 489.96,25.44 C486.99,25.44 484.76,25.85 483.26,26.68 C481.76,27.51 480.48,28.75 479.41,30.41 C478.34,32.07 477.58,33.16 477.14,33.69 C476.7,34.22 475.75,34.48 474.29,34.48 C472.98,34.48 471.84,34.06 470.89,33.22 C469.93,32.38 469.45,31.3 469.45,29.99 C469.45,27.93 470.18,25.94 471.63,23.99 C473.09,22.05 475.36,20.45 478.44,19.19 C481.52,17.93 485.36,17.31 489.96,17.31 C495.1,17.31 499.14,17.92 502.08,19.13 C505.02,20.34 507.1,22.26 508.31,24.89 C509.52,27.52 510.13,31 510.13,35.34 C510.13,38.08 510.13,40.41 510.11,42.32 C510.09,44.23 510.07,46.36 510.05,48.7 C510.05,50.9 510.41,53.19 511.14,55.57 C511.87,57.95 512.23,59.49 512.23,60.17 C512.23,61.37 511.67,62.46 510.54,63.45 C509.41,64.44 508.13,64.93 506.71,64.93 C505.51,64.93 504.33,64.37 503.16,63.24 C501.99,62.11 500.75,60.48 499.43,58.34 L499.43,58.34 Z M498.66,41.42 C496.95,42.05 494.46,42.71 491.19,43.41 C487.92,44.11 485.66,44.62 484.4,44.95 C483.14,45.28 481.94,45.92 480.8,46.88 C479.66,47.84 479.09,49.17 479.09,50.88 C479.09,52.59 479.76,54.16 481.1,55.4 C482.44,56.64 484.2,57.26 486.37,57.26 C488.68,57.26 490.82,56.75 492.77,55.74 C494.73,54.73 496.16,53.42 497.07,51.82 C498.13,50.05 498.65,47.14 498.65,43.08 L498.65,41.41 L498.66,41.42 Z" id="Shape"></path>
                <path d="M518.18,18.42 L519.46,18.42 L519.46,11.4 C519.46,9.52 519.51,8.04 519.61,6.97 C519.71,5.9 519.99,4.98 520.45,4.21 C520.91,3.41 521.56,2.76 522.42,2.26 C523.28,1.76 524.23,1.51 525.29,1.51 C526.77,1.51 528.12,2.07 529.32,3.18 C530.12,3.92 530.63,4.83 530.84,5.9 C531.06,6.97 531.16,8.49 531.16,10.46 L531.16,18.43 L535.44,18.43 C537.1,18.43 538.36,18.82 539.23,19.61 C540.1,20.4 540.54,21.4 540.54,22.63 C540.54,24.2 539.92,25.3 538.68,25.93 C537.44,26.56 535.66,26.87 533.35,26.87 L531.17,26.87 L531.17,48.37 C531.17,50.2 531.23,51.6 531.36,52.59 C531.49,53.58 531.83,54.37 532.39,54.99 C532.95,55.6 533.85,55.91 535.11,55.91 C535.8,55.91 536.72,55.79 537.89,55.55 C539.06,55.31 539.97,55.19 540.63,55.19 C541.57,55.19 542.42,55.57 543.18,56.32 C543.94,57.08 544.32,58.01 544.32,59.13 C544.32,61.01 543.29,62.46 541.24,63.46 C539.19,64.46 536.23,64.96 532.37,64.96 C528.72,64.96 525.95,64.35 524.06,63.12 C522.17,61.89 520.94,60.19 520.36,58.02 C519.77,55.85 519.48,52.95 519.48,49.33 L519.48,26.89 L517.94,26.89 C516.26,26.89 514.97,26.49 514.09,25.69 C513.2,24.89 512.76,23.88 512.76,22.65 C512.76,21.42 513.22,20.42 514.15,19.63 C515.08,18.84 516.43,18.45 518.2,18.45 L518.18,18.42 Z" id="Path"></path>
                <path d="M552.22,11.95 C550.59,11.95 549.2,11.45 548.04,10.45 C546.88,9.45 546.31,8.04 546.31,6.21 C546.31,4.55 546.9,3.19 548.09,2.12 C549.27,1.05 550.65,0.51 552.22,0.51 C553.79,0.51 555.08,1 556.25,1.97 C557.42,2.94 558.01,4.35 558.01,6.21 C558.01,8.07 557.44,9.42 556.3,10.43 C555.16,11.44 553.8,11.95 552.23,11.95 L552.22,11.95 Z M558,24.03 L558,57.82 C558,60.16 557.44,61.93 556.33,63.13 C555.22,64.33 553.8,64.93 552.09,64.93 C550.38,64.93 548.98,64.32 547.91,63.09 C546.84,61.86 546.3,60.11 546.3,57.82 L546.3,24.37 C546.3,22.06 546.83,20.32 547.91,19.15 C548.98,17.98 550.37,17.39 552.09,17.39 C553.81,17.39 555.22,17.98 556.33,19.15 C557.44,20.32 558,21.95 558,24.03 Z" id="Shape"></path>
                <path d="M576.06,24.67 L585.52,51.22 L595.71,23.51 C596.51,21.28 597.29,19.71 598.07,18.78 C598.84,17.85 600.01,17.39 601.58,17.39 C603.06,17.39 604.33,17.89 605.37,18.89 C606.41,19.89 606.93,21.05 606.93,22.36 C606.93,22.87 606.84,23.47 606.65,24.16 C606.46,24.85 606.25,25.49 606.01,26.09 C605.77,26.69 605.49,27.37 605.18,28.15 L593.96,55.99 C593.65,56.79 593.24,57.8 592.74,59.03 C592.24,60.26 591.68,61.31 591.07,62.18 C590.46,63.05 589.7,63.73 588.8,64.21 C587.9,64.7 586.81,64.94 585.52,64.94 C583.86,64.94 582.54,64.56 581.56,63.81 C580.57,63.05 579.85,62.23 579.37,61.33 C578.9,60.43 578.11,58.65 576.99,56 L565.85,28.46 C565.59,27.77 565.33,27.09 565.06,26.4 C564.79,25.71 564.56,25.02 564.37,24.3 C564.18,23.59 564.09,22.97 564.09,22.46 C564.09,21.66 564.33,20.87 564.82,20.08 C565.31,19.29 565.98,18.65 566.83,18.15 C567.69,17.65 568.61,17.4 569.61,17.4 C571.55,17.4 572.89,17.96 573.61,19.07 C574.34,20.18 575.15,22.05 576.03,24.68 L576.06,24.67 Z" id="Path"></path>
                <path d="M644.53,44.03 L621.66,44.03 C621.69,46.69 622.22,49.03 623.27,51.05 C624.31,53.08 625.7,54.6 627.42,55.63 C629.14,56.66 631.05,57.17 633.14,57.17 C634.54,57.17 635.82,57.01 636.97,56.68 C638.13,56.35 639.25,55.84 640.33,55.14 C641.41,54.44 642.41,53.69 643.33,52.89 C644.24,52.09 645.43,51.01 646.88,49.64 C647.48,49.13 648.34,48.87 649.45,48.87 C650.65,48.87 651.62,49.2 652.36,49.86 C653.1,50.52 653.47,51.44 653.47,52.64 C653.47,53.7 653.06,54.93 652.23,56.34 C651.4,57.75 650.15,59.11 648.48,60.41 C646.81,61.71 644.71,62.79 642.19,63.64 C639.66,64.5 636.76,64.92 633.47,64.92 C625.96,64.92 620.12,62.78 615.95,58.5 C611.78,54.22 609.7,48.41 609.7,41.07 C609.7,37.62 610.21,34.41 611.24,31.46 C612.27,28.51 613.77,25.97 615.74,23.86 C617.71,21.75 620.14,20.13 623.02,19 C625.9,17.87 629.1,17.31 632.61,17.31 C637.18,17.31 641.1,18.27 644.37,20.2 C647.64,22.13 650.09,24.62 651.72,27.67 C653.35,30.73 654.16,33.84 654.16,37.01 C654.16,39.95 653.32,41.86 651.63,42.73 C649.95,43.6 647.58,44.04 644.52,44.04 L644.53,44.03 Z M621.66,37.39 L642.86,37.39 C642.57,33.39 641.5,30.4 639.63,28.42 C637.76,26.44 635.3,25.44 632.24,25.44 C629.18,25.44 626.94,26.45 625.07,28.46 C623.2,30.47 622.06,33.45 621.66,37.39 L621.66,37.39 Z" id="Shape"></path>
                <path d="M725.15,41.16 C725.15,44.64 724.61,47.86 723.52,50.8 C722.44,53.74 720.86,56.27 718.81,58.38 C716.75,60.49 714.3,62.11 711.44,63.24 C708.58,64.37 705.37,64.93 701.8,64.93 C698.23,64.93 695.08,64.36 692.25,63.22 C689.42,62.08 686.97,60.44 684.9,58.32 C682.83,56.19 681.26,53.68 680.19,50.78 C679.12,47.88 678.58,44.68 678.58,41.17 C678.58,37.66 679.12,34.39 680.21,31.45 C681.29,28.51 682.85,26 684.88,23.91 C686.91,21.83 689.36,20.22 692.25,19.09 C695.13,17.96 698.32,17.4 701.8,17.4 C705.28,17.4 708.55,17.97 711.44,19.11 C714.32,20.25 716.79,21.88 718.85,23.99 C720.91,26.1 722.47,28.62 723.54,31.53 C724.61,34.44 725.15,37.65 725.15,41.17 L725.15,41.16 Z M713.42,41.16 C713.42,36.39 712.37,32.68 710.27,30.02 C708.17,27.36 705.35,26.04 701.81,26.04 C699.53,26.04 697.51,26.63 695.77,27.82 C694.03,29 692.69,30.75 691.74,33.07 C690.79,35.39 690.33,38.08 690.33,41.16 C690.33,44.24 690.79,46.88 691.72,49.17 C692.65,51.45 693.97,53.2 695.7,54.42 C697.43,55.63 699.46,56.24 701.8,56.24 C705.34,56.24 708.16,54.91 710.26,52.24 C712.36,49.57 713.41,45.88 713.41,41.17 L713.42,41.16 Z" id="Shape"></path>
                <path d="M742.7,23.86 L742.7,25.27 C744.76,22.56 747,20.57 749.45,19.3 C751.89,18.03 754.7,17.39 757.86,17.39 C761.02,17.39 763.7,18.06 766.13,19.4 C768.56,20.74 770.37,22.64 771.57,25.1 C772.34,26.53 772.84,28.07 773.07,29.73 C773.3,31.39 773.41,33.5 773.41,36.07 L773.41,57.83 C773.41,60.17 772.87,61.94 771.8,63.14 C770.73,64.34 769.34,64.94 767.62,64.94 C765.9,64.94 764.47,64.33 763.38,63.1 C762.29,61.87 761.75,60.12 761.75,57.83 L761.75,38.34 C761.75,34.49 761.21,31.54 760.14,29.5 C759.07,27.46 756.93,26.44 753.74,26.44 C751.66,26.44 749.76,27.06 748.04,28.3 C746.32,29.54 745.07,31.25 744.27,33.42 C743.7,35.16 743.41,38.42 743.41,43.18 L743.41,57.83 C743.41,60.2 742.86,61.98 741.76,63.16 C740.66,64.34 739.24,64.94 737.5,64.94 C735.76,64.94 734.43,64.33 733.35,63.1 C732.27,61.87 731.72,60.12 731.72,57.83 L731.72,24.04 C731.72,21.81 732.21,20.15 733.18,19.05 C734.15,17.95 735.48,17.4 737.16,17.4 C738.19,17.4 739.12,17.64 739.94,18.13 C740.77,18.62 741.43,19.34 741.93,20.31 C742.43,21.28 742.68,22.47 742.68,23.86 L742.7,23.86 Z" id="Path"></path>
                <path d="M42.14,94.44 C50.94,94.44 58.49,96.23 64.8,99.79 C71.11,103.36 75.88,108.43 79.12,115.01 C82.36,121.59 83.98,129.31 83.98,138.19 C83.98,144.75 83.09,150.71 81.32,156.07 C79.54,161.43 76.88,166.08 73.33,170.02 C69.78,173.96 65.42,176.96 60.25,179.05 C55.08,181.13 49.16,182.18 42.48,182.18 C35.8,182.18 29.9,181.11 24.66,178.97 C19.41,176.83 15.03,173.81 11.52,169.91 C8.01,166.01 5.36,161.33 3.56,155.85 C1.77,150.37 0.87,144.45 0.87,138.08 C0.87,131.71 1.8,125.58 3.68,120.14 C5.55,114.7 8.26,110.07 11.81,106.25 C15.36,102.43 19.68,99.51 24.77,97.48 C29.86,95.45 35.65,94.44 42.13,94.44 L42.14,94.44 Z M66.56,138.08 C66.56,131.87 65.56,126.49 63.55,121.93 C61.54,117.38 58.68,113.93 54.96,111.6 C51.24,109.27 46.96,108.1 42.14,108.1 C38.71,108.1 35.53,108.75 32.62,110.04 C29.71,111.33 27.2,113.21 25.1,115.68 C23,118.15 21.34,121.3 20.12,125.14 C18.9,128.98 18.3,133.29 18.3,138.07 C18.3,142.85 18.91,147.25 20.12,151.15 C21.34,155.05 23.05,158.28 25.27,160.84 C27.49,163.41 30.03,165.33 32.91,166.6 C35.78,167.87 38.94,168.51 42.37,168.51 C46.77,168.51 50.81,167.41 54.49,165.21 C58.17,163.01 61.11,159.62 63.29,155.02 C65.47,150.43 66.56,144.78 66.56,138.06 L66.56,138.08 Z" id="Shape"></path>
                <path d="M93.23,119.33 L96.99,119.33 L96.99,114.58 C96.99,109.64 97.62,105.72 98.87,102.8 C100.12,99.89 102.25,97.77 105.24,96.43 C108.23,95.1 112.33,94.43 117.54,94.43 C126.76,94.43 131.37,96.69 131.37,101.2 C131.37,102.67 130.89,103.92 129.92,104.96 C128.96,106 127.82,106.52 126.51,106.52 C125.89,106.52 124.83,106.4 123.33,106.17 C121.83,105.94 120.55,105.82 119.51,105.82 C116.65,105.82 114.82,106.66 114.01,108.34 C113.2,110.02 112.79,112.42 112.79,115.55 L112.79,119.31 L116.67,119.31 C122.69,119.31 125.7,121.12 125.7,124.75 C125.7,127.34 124.9,128.97 123.3,129.67 C121.7,130.36 119.49,130.71 116.67,130.71 L112.79,130.71 L112.79,172.55 C112.79,175.68 112.05,178.06 110.56,179.7 C109.07,181.34 107.15,182.16 104.8,182.16 C102.45,182.16 100.7,181.34 99.22,179.7 C97.73,178.06 96.99,175.68 96.99,172.55 L96.99,130.71 L92.65,130.71 C90.3,130.71 88.48,130.18 87.21,129.12 C85.94,128.06 85.3,126.68 85.3,124.98 C85.3,121.2 87.94,119.31 93.23,119.31 L93.23,119.33 Z" id="Path"></path>
                <path d="M134.02,119.33 L137.78,119.33 L137.78,114.58 C137.78,109.64 138.41,105.72 139.66,102.8 C140.91,99.89 143.04,97.77 146.03,96.43 C149.02,95.1 153.12,94.43 158.33,94.43 C167.55,94.43 172.16,96.69 172.16,101.2 C172.16,102.67 171.68,103.92 170.71,104.96 C169.75,106 168.61,106.52 167.3,106.52 C166.68,106.52 165.62,106.4 164.12,106.17 C162.62,105.94 161.34,105.82 160.3,105.82 C157.44,105.82 155.61,106.66 154.8,108.34 C153.99,110.02 153.58,112.42 153.58,115.55 L153.58,119.31 L157.46,119.31 C163.48,119.31 166.49,121.12 166.49,124.75 C166.49,127.34 165.69,128.97 164.09,129.67 C162.49,130.36 160.28,130.71 157.46,130.71 L153.58,130.71 L153.58,172.55 C153.58,175.68 152.84,178.06 151.35,179.7 C149.86,181.34 147.94,182.16 145.59,182.16 C143.24,182.16 141.49,181.34 140.01,179.7 C138.52,178.06 137.78,175.68 137.78,172.55 L137.78,130.71 L133.44,130.71 C131.09,130.71 129.27,130.18 128,129.12 C126.73,128.06 126.09,126.68 126.09,124.98 C126.09,121.2 128.73,119.31 134.02,119.31 L134.02,119.33 Z" id="Path"></path>
                <path d="M222.55,161.52 C222.55,165.88 221.49,169.61 219.37,172.72 C217.25,175.83 214.11,178.18 209.97,179.78 C205.82,181.38 200.78,182.18 194.84,182.18 C188.9,182.18 184.31,181.31 180.26,179.58 C176.21,177.85 173.22,175.67 171.29,173.07 C169.36,170.47 168.4,167.85 168.4,165.23 C168.4,163.49 169.02,162.01 170.25,160.77 C171.48,159.53 173.05,158.92 174.94,158.92 C176.6,158.92 177.87,159.33 178.76,160.14 C179.65,160.95 180.5,162.09 181.31,163.55 C182.93,166.37 184.87,168.47 187.13,169.86 C189.39,171.25 192.46,171.94 196.36,171.94 C199.52,171.94 202.12,171.24 204.14,169.83 C206.17,168.42 207.18,166.81 207.18,165 C207.18,162.22 206.13,160.2 204.03,158.92 C201.93,157.65 198.46,156.43 193.64,155.27 C188.2,153.92 183.77,152.5 180.36,151.02 C176.95,149.54 174.22,147.58 172.17,145.15 C170.12,142.72 169.1,139.73 169.1,136.18 C169.1,133.02 170.04,130.03 171.94,127.21 C173.83,124.39 176.62,122.15 180.3,120.47 C183.98,118.79 188.43,117.95 193.64,117.95 C197.73,117.95 201.4,118.38 204.66,119.22 C207.92,120.07 210.64,121.21 212.82,122.63 C215,124.06 216.66,125.64 217.8,127.38 C218.94,129.12 219.51,130.81 219.51,132.47 C219.51,134.28 218.9,135.77 217.69,136.93 C216.48,138.09 214.75,138.67 212.51,138.67 C210.89,138.67 209.51,138.21 208.37,137.28 C207.23,136.35 205.93,134.97 204.46,133.11 C203.26,131.57 201.86,130.33 200.24,129.41 C198.62,128.49 196.42,128.02 193.64,128.02 C190.86,128.02 188.41,128.63 186.52,129.84 C184.63,131.06 183.68,132.57 183.68,134.38 C183.68,136.04 184.37,137.4 185.76,138.46 C187.15,139.52 189.02,140.4 191.37,141.09 C193.72,141.78 196.96,142.63 201.09,143.64 C205.99,144.84 209.99,146.26 213.1,147.92 C216.21,149.58 218.56,151.54 220.16,153.79 C221.76,156.05 222.56,158.62 222.56,161.52 L222.55,161.52 Z" id="Path"></path>
                <path d="M248.28,104.05 L248.28,127.49 C250.29,125.18 252.24,123.34 254.15,121.99 C256.06,120.64 258.17,119.63 260.49,118.95 C262.8,118.28 265.29,117.94 267.96,117.94 C271.97,117.94 275.53,118.79 278.64,120.49 C281.75,122.19 284.19,124.66 285.96,127.9 C287.08,129.79 287.83,131.9 288.22,134.24 C288.61,136.57 288.8,139.27 288.8,142.31 L288.8,172.58 C288.8,175.74 288.08,178.14 286.63,179.76 C285.18,181.38 283.26,182.19 280.87,182.19 C275.66,182.19 273.06,178.99 273.06,172.58 L273.06,145.9 C273.06,140.85 272.31,136.96 270.8,134.24 C269.29,131.52 266.44,130.16 262.23,130.16 C259.41,130.16 256.88,130.96 254.62,132.56 C252.36,134.16 250.68,136.35 249.56,139.13 C248.71,141.48 248.29,145.67 248.29,151.69 L248.29,172.58 C248.29,175.71 247.59,178.09 246.18,179.73 C244.77,181.37 242.81,182.19 240.31,182.19 C235.1,182.19 232.5,178.99 232.5,172.58 L232.5,104.06 C232.5,100.86 233.18,98.46 234.55,96.85 C235.92,95.25 237.84,94.45 240.31,94.45 C242.78,94.45 244.78,95.26 246.18,96.88 C247.59,98.5 248.29,100.89 248.29,104.06 L248.28,104.05 Z" id="Path"></path>
                <path d="M360.48,150.06 C360.48,154.77 359.75,159.11 358.28,163.08 C356.81,167.05 354.69,170.47 351.91,173.32 C349.13,176.18 345.81,178.36 341.96,179.89 C338.1,181.41 333.76,182.18 328.94,182.18 C324.12,182.18 319.85,181.41 316.03,179.87 C312.21,178.33 308.9,176.12 306.1,173.24 C303.3,170.37 301.18,166.97 299.73,163.05 C298.28,159.13 297.56,154.8 297.56,150.06 C297.56,145.32 298.29,140.9 299.76,136.92 C301.23,132.95 303.33,129.55 306.07,126.73 C308.81,123.91 312.13,121.74 316.02,120.22 C319.92,118.7 324.22,117.93 328.93,117.93 C333.64,117.93 338.05,118.7 341.95,120.24 C345.85,121.78 349.18,123.98 351.96,126.84 C354.74,129.7 356.85,133.09 358.3,137.03 C359.75,140.97 360.47,145.31 360.47,150.05 L360.48,150.06 Z M344.62,150.06 C344.62,143.62 343.2,138.6 340.37,135.01 C337.54,131.42 333.72,129.63 328.94,129.63 C325.85,129.63 323.13,130.43 320.78,132.03 C318.43,133.63 316.61,135.99 315.34,139.12 C314.07,142.25 313.43,145.89 313.43,150.06 C313.43,154.23 314.06,157.8 315.31,160.88 C316.56,163.97 318.36,166.33 320.69,167.97 C323.02,169.61 325.77,170.43 328.94,170.43 C333.72,170.43 337.53,168.63 340.37,165.02 C343.21,161.41 344.62,156.43 344.62,150.06 L344.62,150.06 Z" id="Shape"></path>
                <path d="M385.53,159.37 L385.53,172.56 C385.53,175.76 384.78,178.16 383.27,179.77 C381.76,181.38 379.86,182.17 377.54,182.17 C375.22,182.17 373.39,181.36 371.93,179.74 C370.46,178.12 369.73,175.73 369.73,172.56 L369.73,128.58 C369.73,121.48 372.3,117.93 377.43,117.93 C380.05,117.93 381.94,118.76 383.1,120.42 C384.26,122.08 384.89,124.53 385.01,127.77 C386.9,124.53 388.84,122.08 390.83,120.42 C392.82,118.76 395.47,117.93 398.79,117.93 C402.11,117.93 405.33,118.76 408.45,120.42 C411.58,122.08 413.14,124.28 413.14,127.02 C413.14,128.95 412.47,130.54 411.14,131.79 C409.81,133.04 408.37,133.67 406.83,133.67 C406.25,133.67 404.85,133.31 402.63,132.6 C400.41,131.89 398.45,131.53 396.76,131.53 C394.45,131.53 392.55,132.14 391.09,133.35 C389.62,134.57 388.49,136.37 387.68,138.76 C386.87,141.15 386.31,144 386,147.3 C385.69,150.6 385.54,154.62 385.54,159.37 L385.53,159.37 Z" id="Path"></path>
                <path d="M459.82,153.93 L428.92,153.93 C428.96,157.52 429.68,160.68 431.09,163.42 C432.5,166.16 434.37,168.22 436.7,169.61 C439.03,171 441.61,171.69 444.43,171.69 C446.32,171.69 448.05,171.47 449.61,171.02 C451.17,170.58 452.69,169.88 454.15,168.94 C455.62,168 456.97,166.98 458.2,165.9 C459.43,164.82 461.04,163.35 463,161.5 C463.81,160.81 464.97,160.46 466.47,160.46 C468.09,160.46 469.4,160.9 470.41,161.79 C471.41,162.68 471.91,163.93 471.91,165.55 C471.91,166.98 471.35,168.65 470.23,170.56 C469.11,172.47 467.42,174.3 465.17,176.06 C462.91,177.82 460.08,179.27 456.66,180.43 C453.24,181.59 449.32,182.17 444.88,182.17 C434.73,182.17 426.84,179.28 421.21,173.49 C415.58,167.7 412.76,159.85 412.76,149.94 C412.76,145.27 413.45,140.94 414.84,136.95 C416.23,132.96 418.25,129.53 420.92,126.68 C423.58,123.83 426.86,121.64 430.76,120.11 C434.66,118.59 438.98,117.82 443.72,117.82 C449.89,117.82 455.19,119.12 459.61,121.73 C464.03,124.33 467.34,127.7 469.54,131.83 C471.74,135.96 472.84,140.16 472.84,144.45 C472.84,148.42 471.7,151 469.43,152.18 C467.15,153.36 463.95,153.95 459.82,153.95 L459.82,153.93 Z M428.92,144.96 L457.57,144.96 C457.18,139.56 455.73,135.52 453.2,132.84 C450.67,130.16 447.34,128.82 443.22,128.82 C439.1,128.82 436.05,130.18 433.53,132.9 C431,135.62 429.47,139.64 428.93,144.97 L428.92,144.96 Z" id="Shape"></path>
                <path d="M570.79,167.36 L557.07,116.49 L543.18,167.36 C542.1,171.22 541.24,173.99 540.61,175.66 C539.97,177.34 538.86,178.84 537.28,180.17 C535.7,181.5 533.6,182.17 530.97,182.17 C528.85,182.17 527.1,181.77 525.73,180.98 C524.36,180.19 523.25,179.07 522.4,177.62 C521.55,176.17 520.86,174.46 520.32,172.47 C519.78,170.48 519.3,168.64 518.87,166.94 L504.75,109.82 C503.9,106.5 503.48,103.97 503.48,102.24 C503.48,100.04 504.25,98.19 505.79,96.68 C507.33,95.18 509.24,94.42 511.52,94.42 C514.65,94.42 516.75,95.42 517.83,97.43 C518.91,99.44 519.86,102.35 520.67,106.17 L531.78,155.71 L544.22,109.35 C545.15,105.8 545.98,103.1 546.71,101.25 C547.44,99.4 548.64,97.8 550.3,96.45 C551.96,95.1 554.22,94.42 557.07,94.42 C559.92,94.42 562.21,95.12 563.81,96.53 C565.41,97.94 566.52,99.47 567.14,101.13 C567.76,102.79 568.59,105.53 569.63,109.35 L582.19,155.71 L593.3,106.17 C593.84,103.59 594.35,101.56 594.83,100.09 C595.31,98.62 596.14,97.31 597.32,96.15 C598.5,94.99 600.2,94.41 602.44,94.41 C604.68,94.41 606.58,95.15 608.14,96.64 C609.7,98.13 610.48,99.99 610.48,102.22 C610.48,103.8 610.05,106.33 609.21,109.8 L595.09,166.92 C594.13,170.78 593.32,173.6 592.69,175.4 C592.05,177.19 590.97,178.77 589.45,180.12 C587.93,181.47 585.77,182.15 583,182.15 C580.38,182.15 578.27,181.49 576.69,180.18 C575.11,178.87 574.01,177.39 573.39,175.75 C572.77,174.11 571.9,171.3 570.79,167.33 L570.79,167.36 Z" id="Path"></path>
                <path d="M625.7,110.59 C623.5,110.59 621.62,109.92 620.06,108.56 C618.5,107.21 617.72,105.3 617.72,102.83 C617.72,100.59 618.52,98.75 620.12,97.3 C621.72,95.85 623.58,95.13 625.7,95.13 C627.82,95.13 629.56,95.79 631.14,97.1 C632.72,98.41 633.51,100.32 633.51,102.83 C633.51,105.34 632.74,107.16 631.2,108.53 C629.66,109.9 627.82,110.58 625.7,110.58 L625.7,110.59 Z M633.51,126.91 L633.51,172.57 C633.51,175.73 632.76,178.13 631.25,179.75 C629.74,181.37 627.84,182.18 625.52,182.18 C623.2,182.18 621.32,181.35 619.88,179.69 C618.43,178.03 617.71,175.66 617.71,172.57 L617.71,127.37 C617.71,124.24 618.43,121.89 619.88,120.31 C621.33,118.73 623.21,117.94 625.52,117.94 C627.83,117.94 629.74,118.73 631.25,120.31 C632.75,121.89 633.51,124.09 633.51,126.91 Z" id="Shape"></path>
                <path d="M661.1,126.68 L661.1,128.59 C663.88,124.93 666.92,122.23 670.22,120.52 C673.52,118.8 677.31,117.94 681.59,117.94 C685.87,117.94 689.48,118.85 692.76,120.66 C696.04,122.47 698.49,125.04 700.11,128.36 C701.15,130.29 701.83,132.37 702.14,134.61 C702.45,136.85 702.6,139.7 702.6,143.18 L702.6,172.58 C702.6,175.74 701.88,178.14 700.43,179.76 C698.98,181.38 697.1,182.19 694.79,182.19 C692.48,182.19 690.53,181.36 689.06,179.7 C687.59,178.04 686.86,175.67 686.86,172.58 L686.86,146.25 C686.86,141.04 686.14,137.06 684.69,134.3 C683.24,131.54 680.36,130.16 676.04,130.16 C673.22,130.16 670.66,131 668.34,132.68 C666.02,134.36 664.33,136.66 663.25,139.6 C662.48,141.95 662.09,146.35 662.09,152.79 L662.09,172.58 C662.09,175.78 661.35,178.18 659.86,179.79 C658.38,181.39 656.46,182.19 654.1,182.19 C651.74,182.19 649.95,181.36 648.49,179.7 C647.02,178.04 646.29,175.67 646.29,172.58 L646.29,126.92 C646.29,123.91 646.95,121.66 648.26,120.18 C649.57,118.7 651.37,117.95 653.64,117.95 C655.03,117.95 656.28,118.28 657.4,118.93 C658.52,119.59 659.42,120.57 660.09,121.88 C660.77,123.19 661.1,124.79 661.1,126.68 L661.1,126.68 Z" id="Path"></path>
                <path d="M758.54,173.15 L758.54,171.59 C756.42,174.02 754.32,176 752.26,177.52 C750.2,179.04 747.96,180.2 745.55,180.99 C743.14,181.78 740.5,182.18 737.65,182.18 C733.87,182.18 730.37,181.38 727.15,179.78 C723.93,178.18 721.14,175.89 718.79,172.92 C716.44,169.95 714.65,166.46 713.44,162.45 C712.23,158.44 711.62,154.1 711.62,149.43 C711.62,139.55 714.03,131.86 718.85,126.34 C723.67,120.82 730.02,118.06 737.89,118.06 C742.44,118.06 746.28,118.84 749.41,120.4 C752.54,121.96 755.58,124.36 758.55,127.61 L758.55,104.29 C758.55,101.05 759.2,98.6 760.49,96.94 C761.78,95.28 763.62,94.45 766.02,94.45 C768.42,94.45 770.25,95.21 771.55,96.74 C772.84,98.26 773.49,100.51 773.49,103.48 L773.49,173.16 C773.49,176.17 772.8,178.43 771.41,179.93 C770.02,181.43 768.23,182.19 766.03,182.19 C763.83,182.19 762.09,181.41 760.68,179.85 C759.27,178.29 758.57,176.06 758.57,173.17 L758.54,173.15 Z M727.46,149.94 C727.46,154.22 728.12,157.87 729.46,160.88 C730.79,163.89 732.61,166.16 734.93,167.68 C737.24,169.2 739.77,169.97 742.51,169.97 C745.25,169.97 747.82,169.25 750.12,167.8 C752.42,166.35 754.25,164.14 755.62,161.14 C756.99,158.15 757.67,154.42 757.67,149.94 C757.67,145.74 756.99,142.12 755.62,139.09 C754.25,136.06 752.4,133.75 750.06,132.15 C747.73,130.55 745.17,129.75 742.39,129.75 C739.61,129.75 736.91,130.57 734.64,132.21 C732.36,133.85 730.6,136.2 729.35,139.27 C728.1,142.34 727.47,145.9 727.47,149.95 L727.46,149.94 Z" id="Shape"></path>
            </g>
        </g>
    </g>
</svg>