<svg xmlns="http://www.w3.org/2000/svg" viewBox="0 0 1157.1 305.11"><defs><style>.cls-1,.cls-10,.cls-2,.cls-3,.cls-4,.cls-5,.cls-8,.cls-9{fill:none;stroke-linecap:round;}.cls-1,.cls-2,.cls-3,.cls-9{stroke:#808184;}.cls-1,.cls-10,.cls-2,.cls-3,.cls-4,.cls-5,.cls-9{stroke-linejoin:round;stroke-width:7px;}.cls-2{stroke-dasharray:4.16 27.02;}.cls-3{stroke-dasharray:4.05 30.41;}.cls-10,.cls-4,.cls-5{stroke:#c7c8c9;}.cls-5{stroke-dasharray:4.23 31.74;}.cls-6{fill:#6f9499;}.cls-7{fill:#43676b;}.cls-8{stroke:#cf792a;stroke-miterlimit:10;stroke-width:8px;}.cls-9{stroke-dasharray:50 52 28;}.cls-10{stroke-dasharray:64.02 45.62;}</style></defs><g id="Layer_2" data-name="Layer 2"><g id="Layer_1-2" data-name="Layer 1"><line class="cls-1" x1="256.41" y1="168.43" x2="254.99" y2="169.83"/><line class="cls-2" x1="235.7" y1="188.76" x2="134.09" y2="288.51"/><line class="cls-1" x1="124.45" y1="297.97" x2="123.02" y2="299.37"/><line class="cls-1" x1="223.75" y1="103.7" x2="225.15" y2="105.12"/><line class="cls-3" x1="246.45" y1="126.83" x2="259.93" y2="140.58"/><line class="cls-1" x1="270.58" y1="151.43" x2="271.98" y2="152.86"/><line class="cls-4" x1="125.42" y1="4" x2="126.82" y2="5.43"/><line class="cls-5" x1="149.06" y1="28.07" x2="188.35" y2="68.07"/><line class="cls-4" x1="199.47" y1="79.39" x2="200.87" y2="80.82"/><rect class="cls-6" x="59.64" y="94.16" width="136" height="60.01" transform="translate(-50.41 126.62) rotate(-45)"/><rect class="cls-7" x="113.18" y="147.42" width="136" height="60.57" transform="translate(-72.59 180.16) rotate(-45)"/><line class="cls-8" x1="301.11" y1="4" x2="4" y2="301.11"/><line class="cls-9" x1="104.77" y1="222.49" x2="183.39" y2="301.11"/><line class="cls-4" x1="184.57" y1="4.09" x2="166.89" y2="21.77"/><line class="cls-10" x1="130.67" y1="57.98" x2="69.27" y2="119.38"/><polyline class="cls-4" points="53.15 135.51 35.47 153.19 54.8 172.52"/><path class="cls-7" d="M365.67,178.13V130.78h-6.38a5.32,5.32,0,0,1-5.16-5.16,5.22,5.22,0,0,1,5.16-5.16h6.38V102A5.79,5.79,0,0,1,371.43,96a6,6,0,0,1,5.92,5.92v18.51h20.33a5.35,5.35,0,0,1,5.32,5.16,5.25,5.25,0,0,1-5.32,5.16H377.35v45.83c0,9.56,5.31,13,13.2,13,4.1,0,6.22-1.06,7.13-1.06a5.05,5.05,0,0,1,5,5,4.89,4.89,0,0,1-3.34,4.55,29.62,29.62,0,0,1-11.53,2.12C375.23,200.28,365.67,194.06,365.67,178.13Z"/><path class="cls-7" d="M451.69,125.62a5.89,5.89,0,0,1,5.77-5.91,5.83,5.83,0,0,1,5.92,5.91v14.72c5.77-13,17.15-20.94,27-20.94a5.62,5.62,0,0,1,5.77,5.92,5.81,5.81,0,0,1-5.16,5.92c-15.18,1.82-27.62,13.2-27.62,35.81v26.71a5.85,5.85,0,1,1-11.69,0Z"/><path class="cls-7" d="M532.26,176.16v-.31c0-16.54,13.66-25.34,33.54-25.34a83.38,83.38,0,0,1,24.13,3.34v-2.73c0-14.12-8.65-21.4-23.37-21.4a48.94,48.94,0,0,0-20.33,4.4,5.85,5.85,0,0,1-2.13.46,5.19,5.19,0,0,1-5.16-5,5.36,5.36,0,0,1,3.19-4.86,61.85,61.85,0,0,1,25.65-5.31c11.07,0,19.57,2.89,25.34,8.65,5.31,5.31,8,12.9,8,22.91v42.95a5.55,5.55,0,0,1-5.61,5.77,5.39,5.39,0,0,1-5.62-5.46v-7.14c-5.46,7.14-14.57,13.51-28.38,13.51C547,200.59,532.26,192.24,532.26,176.16Zm57.82-6.07V162.5A81.74,81.74,0,0,0,567,159.16c-14.71,0-22.91,6.37-22.91,16.24v.3c0,9.86,9.11,15.63,19.73,15.63C578.25,191.33,590.08,182.53,590.08,170.09Z"/><path class="cls-7" d="M654.86,125.62a5.89,5.89,0,0,1,5.77-5.91,5.83,5.83,0,0,1,5.92,5.91v8.5c5.16-8.5,13.35-15.33,26.86-15.33,19,0,30.05,12.75,30.05,31.42v43.55a5.85,5.85,0,1,1-11.69,0V153.09c0-14.57-7.89-23.67-21.7-23.67-13.5,0-23.52,9.86-23.52,24.58v39.76a5.71,5.71,0,0,1-5.77,5.92,5.83,5.83,0,0,1-5.92-5.92Z"/><path class="cls-7" d="M772.91,190.57a5.27,5.27,0,0,1-2.12-4.25,5.08,5.08,0,0,1,5.16-5,4.65,4.65,0,0,1,2.88.91c8,5.46,16.39,8.34,24.89,8.34,9.41,0,16.24-4.85,16.24-12.44v-.3c0-7.9-9.26-10.93-19.58-13.81-12.29-3.49-26-7.74-26-22.16v-.3c0-13.51,11.23-22.46,26.71-22.46a54.74,54.74,0,0,1,25,6.67,5.68,5.68,0,0,1,2.88,4.86,5.08,5.08,0,0,1-5.16,5,5.8,5.8,0,0,1-2.58-.61c-6.68-3.79-13.81-6.07-20.49-6.07-9.25,0-15.17,4.86-15.17,11.38v.31c0,7.43,9.71,10.31,20.18,13.5C818,157.79,831,162.5,831,176.61v.3c0,14.88-12.29,23.53-27.92,23.53A54.3,54.3,0,0,1,772.91,190.57Z"/><path class="cls-7" d="M915.85,200.74c-21.55,0-39.15-16.54-39.15-40.82v-.3c0-22.62,15.93-40.83,37.63-40.83,23.22,0,36.42,19,36.42,39.76a5.44,5.44,0,0,1-5.46,5.47H888.53c1.67,17,13.66,26.55,27.62,26.55,9.71,0,16.85-3.79,22.61-9.1a5,5,0,0,1,8.5,3.64,5,5,0,0,1-1.82,3.79C938,196,929.2,200.74,915.85,200.74Zm23.22-45.37c-1.22-14.27-9.41-26.71-25-26.71-13.66,0-24,11.38-25.5,26.71Z"/><path class="cls-7" d="M995.35,160.07v-.3c0-22.16,17.3-41,40.22-41,13,0,21.85,5,28.83,11.38a5.5,5.5,0,0,1,1.82,4.1,5.6,5.6,0,0,1-5.61,5.62,6.05,6.05,0,0,1-3.8-1.37c-5.61-5.16-12-9.41-21.4-9.41-15.93,0-28.07,13.51-28.07,30.36v.3c0,17,12.45,30.5,28.83,30.5,9,0,16.09-4.1,21.85-9.56a4.64,4.64,0,0,1,3.34-1.52,5.47,5.47,0,0,1,5.31,5.31,5.26,5.26,0,0,1-1.51,3.64c-7.44,7.44-16.39,12.6-29.59,12.6C1012.65,200.74,995.35,182.08,995.35,160.07Z"/><path class="cls-7" d="M1119.77,178.13V130.78h-6.37a5.32,5.32,0,0,1-5.16-5.16,5.22,5.22,0,0,1,5.16-5.16h6.37V102a5.8,5.8,0,0,1,5.77-5.92,6,6,0,0,1,5.92,5.92v18.51h20.33a5.34,5.34,0,0,1,5.31,5.16,5.24,5.24,0,0,1-5.31,5.16h-20.33v45.83c0,9.56,5.31,13,13.2,13,4.1,0,6.22-1.06,7.13-1.06a5.06,5.06,0,0,1,5,5,4.87,4.87,0,0,1-3.34,4.55,29.62,29.62,0,0,1-11.53,2.12C1129.33,200.28,1119.77,194.06,1119.77,178.13Z"/></g></g></svg>